<?xml version="1.0" encoding="UTF-8"?>
<!DOCTYPE svg PUBLIC "-//W3C//DTD SVG 1.1//EN" "http://www.w3.org/Graphics/SVG/1.1/DTD/svg11.dtd">
<svg xmlns="http://www.w3.org/2000/svg" version="1.1" width="957px" height="1095px" style="shape-rendering:geometricPrecision; text-rendering:geometricPrecision; image-rendering:optimizeQuality; fill-rule:evenodd; clip-rule:evenodd" xmlns:xlink="http://www.w3.org/1999/xlink">
<g><path style="opacity:1" fill="#fefefe" d="M -0.5,-0.5 C 318.5,-0.5 637.5,-0.5 956.5,-0.5C 956.5,364.5 956.5,729.5 956.5,1094.5C 637.5,1094.5 318.5,1094.5 -0.5,1094.5C -0.5,729.5 -0.5,364.5 -0.5,-0.5 Z"/></g>
<g><path style="opacity:1" fill="#0a0a0a" d="M 406.5,140.5 C 418.574,138.531 428.741,141.864 437,150.5C 438.741,153.309 439.908,156.309 440.5,159.5C 438.599,159.433 436.766,159.767 435,160.5C 427.083,146.798 415.917,143.298 401.5,150C 390.767,160.428 387.601,172.928 392,187.5C 397.589,202.385 408.089,207.552 423.5,203C 429.726,200.069 433.726,195.235 435.5,188.5C 437.409,189.348 439.409,189.682 441.5,189.5C 439.136,200.03 432.803,206.863 422.5,210C 401.803,213.942 388.97,205.775 384,185.5C 381.54,172.783 383.874,161.117 391,150.5C 395.315,145.654 400.482,142.321 406.5,140.5 Z"/></g>
<g><path style="opacity:1" fill="#020202" d="M 263.5,141.5 C 281.833,141.5 300.167,141.5 318.5,141.5C 319.01,144.388 318.344,146.721 316.5,148.5C 309.018,147.508 301.352,147.175 293.5,147.5C 293.17,166.674 293.503,185.674 294.5,204.5C 294.5,205.5 294.5,206.5 294.5,207.5C 292.365,209.369 289.698,210.036 286.5,209.5C 286.5,208.167 286.5,206.833 286.5,205.5C 287.497,186.341 287.83,167.007 287.5,147.5C 279.5,147.5 271.5,147.5 263.5,147.5C 263.5,145.5 263.5,143.5 263.5,141.5 Z"/></g>
<g><path style="opacity:1" fill="#050505" d="M 375.5,148.5 C 368.018,147.508 360.352,147.175 352.5,147.5C 352.5,168.167 352.5,188.833 352.5,209.5C 350.167,209.5 347.833,209.5 345.5,209.5C 345.5,208.5 345.5,207.5 345.5,206.5C 345.5,186.833 345.5,167.167 345.5,147.5C 337.58,147.185 329.747,147.518 322,148.5C 321.503,146.19 321.337,143.857 321.5,141.5C 340.167,141.5 358.833,141.5 377.5,141.5C 378.01,144.388 377.344,146.721 375.5,148.5 Z"/></g>
<g><path style="opacity:1" fill="#070707" d="M 231.5,206.5 C 231.5,207.5 231.5,208.5 231.5,209.5C 228.5,209.5 225.5,209.5 222.5,209.5C 209.931,190.707 197.598,171.707 185.5,152.5C 185.217,151.711 184.717,151.044 184,150.5C 183.171,168.671 183.338,186.671 184.5,204.5C 184.5,205.5 184.5,206.5 184.5,207.5C 182.365,209.369 179.698,210.036 176.5,209.5C 177.823,187.167 177.823,164.833 176.5,142.5C 179.833,141.167 183.167,141.167 186.5,142.5C 198.803,161.968 211.303,181.301 224,200.5C 224.5,180.836 224.667,161.169 224.5,141.5C 226.833,141.5 229.167,141.5 231.5,141.5C 231.5,163.167 231.5,184.833 231.5,206.5 Z"/></g>
<g><path style="opacity:1" fill="#0d0d0d" d="M 246.5,141.5 C 249.167,141.5 251.833,141.5 254.5,141.5C 253.198,163.852 253.198,186.186 254.5,208.5C 251.914,209.48 249.247,209.813 246.5,209.5C 246.5,186.833 246.5,164.167 246.5,141.5 Z"/></g>
<g><path style="opacity:1" fill="#9b9b9b" d="M 263.5,141.5 C 263.5,143.5 263.5,145.5 263.5,147.5C 271.5,147.5 279.5,147.5 287.5,147.5C 287.83,167.007 287.497,186.341 286.5,205.5C 286.5,186.5 286.5,167.5 286.5,148.5C 278.5,148.5 270.5,148.5 262.5,148.5C 262.198,145.941 262.532,143.607 263.5,141.5 Z"/></g>
<g><path style="opacity:1" fill="#525252" d="M 316.5,148.5 C 309.167,148.5 301.833,148.5 294.5,148.5C 294.5,167.167 294.5,185.833 294.5,204.5C 293.503,185.674 293.17,166.674 293.5,147.5C 301.352,147.175 309.018,147.508 316.5,148.5 Z"/></g>
<g><path style="opacity:1" fill="#c0c0c0" d="M 375.5,148.5 C 368.167,148.5 360.833,148.5 353.5,148.5C 353.5,169.167 353.5,189.833 353.5,210.5C 350.5,210.5 347.5,210.5 344.5,210.5C 344.232,208.901 344.566,207.568 345.5,206.5C 345.5,207.5 345.5,208.5 345.5,209.5C 347.833,209.5 350.167,209.5 352.5,209.5C 352.5,188.833 352.5,168.167 352.5,147.5C 360.352,147.175 368.018,147.508 375.5,148.5 Z"/></g>
<g><path style="opacity:1" fill="#070807" d="M 636.5,615.5 C 632.833,615.5 629.167,615.5 625.5,615.5C 625.5,613.833 625.5,612.167 625.5,610.5C 625.833,610.5 626.167,610.5 626.5,610.5C 631.681,610.723 636.514,609.723 641,607.5C 642.607,601.082 640.107,598.749 633.5,600.5C 631.5,600.5 629.5,600.5 627.5,600.5C 627.5,597.167 627.5,593.833 627.5,590.5C 628.671,589.655 630.005,588.989 631.5,588.5C 647.324,587.793 662.324,584.127 676.5,577.5C 676.833,577.5 677.167,577.5 677.5,577.5C 682.503,575.776 687.503,573.942 692.5,572C 693.916,570.085 693.582,568.585 691.5,567.5C 691.414,566.504 691.748,565.671 692.5,565C 699.279,560.718 705.612,555.884 711.5,550.5C 712.419,553.089 714.086,555.089 716.5,556.5C 764.978,526.908 796.478,484.575 811,429.5C 812.911,419.588 813.744,409.588 813.5,399.5C 806.851,398.345 800.184,398.345 793.5,399.5C 784.531,399.087 775.865,400.087 767.5,402.5C 761.84,402.441 756.506,403.441 751.5,405.5C 749.5,405.5 747.5,405.5 745.5,405.5C 740.548,405.817 735.882,407.15 731.5,409.5C 730.215,412.021 729.548,414.687 729.5,417.5C 727.684,423.141 725.851,428.808 724,434.5C 721.228,438.941 718.894,443.608 717,448.5C 712.698,454.969 708.198,461.303 703.5,467.5C 700.833,464.5 698.167,461.5 695.5,458.5C 697.559,454.05 699.892,449.717 702.5,445.5C 704.094,441.463 702.594,439.13 698,438.5C 696.624,438.684 695.791,439.351 695.5,440.5C 692.759,442.975 690.759,445.975 689.5,449.5C 686,449.505 684.5,447.838 685,444.5C 708.02,419.085 715.354,389.752 707,356.5C 701.191,344.215 694.858,332.215 688,320.5C 672.543,298.68 651.376,286.513 624.5,284C 610.211,282.511 596.211,283.844 582.5,288C 565.989,295.523 552.155,306.356 541,320.5C 529.972,333.56 522.972,348.56 520,365.5C 519.059,380.37 520.893,394.87 525.5,409C 523.53,413.745 521.863,418.578 520.5,423.5C 519.007,421.098 518.007,418.431 517.5,415.5C 515.021,411.589 512.188,411.589 509,415.5C 508.211,417.712 508.378,419.712 509.5,421.5C 510.746,426.233 512.413,430.899 514.5,435.5C 515.325,436.386 516.325,436.719 517.5,436.5C 517.326,438.861 516.993,441.194 516.5,443.5C 515.111,448.269 514.444,453.269 514.5,458.5C 510.647,453.14 507.48,447.14 505,440.5C 500.329,428.15 496.662,415.483 494,402.5C 486.243,400.16 478.743,397.326 471.5,394C 463.654,391.439 455.654,389.606 447.5,388.5C 447.5,388.167 447.5,387.833 447.5,387.5C 446.081,386.549 444.415,386.216 442.5,386.5C 441.264,398.651 441.264,410.651 442.5,422.5C 442.45,428.389 443.116,434.056 444.5,439.5C 445.075,446.226 446.075,452.893 447.5,459.5C 447.565,459.938 447.399,460.272 447,460.5C 439.333,458.125 431.5,456.459 423.5,455.5C 422.167,454.5 422.167,453.5 423.5,452.5C 426.096,451.735 428.763,451.401 431.5,451.5C 430.777,443.496 429.944,435.496 429,427.5C 426.281,426.556 423.448,426.223 420.5,426.5C 420.335,422.818 420.501,419.152 421,415.5C 422.49,414.272 423.99,414.272 425.5,415.5C 426.568,416.434 427.901,416.768 429.5,416.5C 429.825,409.313 429.491,402.313 428.5,395.5C 428.715,393.821 428.048,392.821 426.5,392.5C 426.389,391.883 426.056,391.383 425.5,391C 422.854,390.503 420.187,390.336 417.5,390.5C 415.089,380.933 414.923,371.267 417,361.5C 426.665,299.997 453.831,247.83 498.5,205C 537.621,170.513 583.288,156.846 635.5,164C 663.182,168.004 690.182,174.671 716.5,184C 739.647,193.73 760.647,206.73 779.5,223C 788.026,230.862 796.526,238.695 805,246.5C 827.565,277.846 840.899,312.846 845,351.5C 849.707,405.983 838.374,456.65 811,503.5C 795.834,528.954 777,551.454 754.5,571C 719.652,597.344 680.319,612.177 636.5,615.5 Z"/></g>
<g><path style="opacity:1" fill="#424242" d="M 185.5,152.5 C 184.503,169.659 184.17,186.992 184.5,204.5C 183.338,186.671 183.171,168.671 184,150.5C 184.717,151.044 185.217,151.711 185.5,152.5 Z"/></g>
<g><path style="opacity:1" fill="#bcbcbc" d="M 638.5,172.5 C 640.372,179.297 637.705,181.964 630.5,180.5C 621.161,180.666 611.827,180.5 602.5,180C 597.981,175.29 598.981,172.29 605.5,171C 615.833,170.333 626.167,170.333 636.5,171C 637.044,171.717 637.711,172.217 638.5,172.5 Z"/></g>
<g><path style="opacity:1" fill="#bdbdbd" d="M 581.5,172.5 C 585.308,172.163 588.974,172.663 592.5,174C 594.229,175.789 594.896,177.956 594.5,180.5C 580.311,182.396 566.311,185.23 552.5,189C 549.833,186 549.833,183 552.5,180C 562.127,176.899 571.793,174.399 581.5,172.5 Z"/></g>
<g><path style="opacity:1" fill="#c2c2c2" d="M 657.5,184.5 C 650.986,184.66 648.653,181.66 650.5,175.5C 651.622,174.844 652.955,174.511 654.5,174.5C 658.861,175.173 663.194,176.007 667.5,177C 675.183,179.03 682.516,181.864 689.5,185.5C 690.641,187.421 690.808,189.421 690,191.5C 688.769,192.108 687.436,192.441 686,192.5C 676.406,190.135 666.906,187.468 657.5,184.5 Z"/></g>
<g><path style="opacity:1" fill="#707070" d="M 650.5,175.5 C 648.653,181.66 650.986,184.66 657.5,184.5C 650.432,186.011 647.265,183.344 648,176.5C 648.671,175.748 649.504,175.414 650.5,175.5 Z"/></g>
<g><path style="opacity:1" fill="#3f3f3f" d="M 638.5,172.5 C 639.117,172.611 639.617,172.944 640,173.5C 640.903,181.216 637.736,183.55 630.5,180.5C 637.705,181.964 640.372,179.297 638.5,172.5 Z"/></g>
<g><path style="opacity:1" fill="#494949" d="M 536.5,189.5 C 538.628,188.371 540.961,188.204 543.5,189C 546.14,191.621 546.14,194.121 543.5,196.5C 544.833,190.5 542.5,188.167 536.5,189.5 Z"/></g>
<g><path style="opacity:1" fill="#c1c1c1" d="M 702.5,187.5 C 704.857,187.337 707.19,187.503 709.5,188C 718.415,193.041 727.249,198.207 736,203.5C 736.993,209.502 734.493,211.668 728.5,210C 719.877,204.523 710.877,199.856 701.5,196C 700.041,192.929 700.374,190.096 702.5,187.5 Z"/></g>
<g><path style="opacity:1" fill="#c1c1c1" d="M 536.5,189.5 C 542.5,188.167 544.833,190.5 543.5,196.5C 535.164,200.999 527.164,205.999 519.5,211.5C 517.833,211.5 516.167,211.5 514.5,211.5C 513.37,208.803 513.37,206.137 514.5,203.5C 521.12,197.848 528.453,193.182 536.5,189.5 Z"/></g>
<g><path style="opacity:1" fill="#54b8a0" d="M 591.5,193.5 C 617.381,192.606 643.048,194.44 668.5,199C 682.075,202.766 695.075,207.766 707.5,214C 708.357,214.689 709.023,215.522 709.5,216.5C 696.656,234.182 683.989,252.016 671.5,270C 665.857,269.073 660.524,267.073 655.5,264C 644.326,260.707 632.993,258.04 621.5,256C 608.458,255.123 595.458,255.456 582.5,257C 574.736,258.55 567.736,261.717 561.5,266.5C 554.387,247.074 548.221,227.408 543,207.5C 546.315,204.721 550.149,202.887 554.5,202C 566.861,198.725 579.194,195.892 591.5,193.5 Z"/></g>
<g><path style="opacity:1" fill="#949494" d="M 184.5,207.5 C 185.404,208.209 185.737,209.209 185.5,210.5C 182.287,210.81 179.287,210.477 176.5,209.5C 179.698,210.036 182.365,209.369 184.5,207.5 Z"/></g>
<g><path style="opacity:1" fill="#939393" d="M 231.5,206.5 C 232.434,207.568 232.768,208.901 232.5,210.5C 228.958,210.813 225.625,210.479 222.5,209.5C 225.5,209.5 228.5,209.5 231.5,209.5C 231.5,208.5 231.5,207.5 231.5,206.5 Z"/></g>
<g><path style="opacity:1" fill="#949494" d="M 294.5,207.5 C 295.404,208.209 295.737,209.209 295.5,210.5C 292.287,210.81 289.287,210.477 286.5,209.5C 289.698,210.036 292.365,209.369 294.5,207.5 Z"/></g>
<g><path style="opacity:1" fill="#c0c0c0" d="M 769.5,221.5 C 771.86,226.768 770.194,229.434 764.5,229.5C 758.577,224.528 752.243,220.028 745.5,216C 743.514,210.317 745.514,207.984 751.5,209C 757.104,213.777 763.104,217.943 769.5,221.5 Z"/></g>
<g><path style="opacity:1" fill="#585858" d="M 514.5,203.5 C 513.37,206.137 513.37,208.803 514.5,211.5C 516.167,211.5 517.833,211.5 519.5,211.5C 512.995,213.826 510.829,211.493 513,204.5C 513.383,203.944 513.883,203.611 514.5,203.5 Z"/></g>
<g><path style="opacity:1" fill="#b9b9b9" d="M 500.5,212.5 C 506.499,212.002 508.666,214.669 507,220.5C 501.09,225.739 495.923,231.572 491.5,238C 484.923,239.591 482.756,237.091 485,230.5C 489.628,224.038 494.795,218.038 500.5,212.5 Z"/></g>
<g><path style="opacity:1" fill="#326139" d="M 735.5,227.5 C 732.257,227.914 729.257,228.914 726.5,230.5C 728.762,226.859 731.762,225.859 735.5,227.5 Z"/></g>
<g><path style="opacity:1" fill="#767576" d="M 769.5,221.5 C 770.117,221.611 770.617,221.944 771,222.5C 772.513,228.817 770.346,231.15 764.5,229.5C 770.194,229.434 771.86,226.768 769.5,221.5 Z"/></g>
<g><path style="opacity:1" fill="#53b965" d="M 735.5,227.5 C 750.912,236.372 765.746,246.372 780,257.5C 788.532,269.35 796.198,281.684 803,294.5C 806.255,302.519 808.088,310.852 808.5,319.5C 808.527,325.051 809.194,330.384 810.5,335.5C 812.273,348.621 812.94,361.954 812.5,375.5C 793.171,377.166 773.837,378.833 754.5,380.5C 749.5,380.5 744.5,380.5 739.5,380.5C 738.73,377.504 737.396,374.837 735.5,372.5C 729.569,346.553 719.069,322.553 704,300.5C 700.301,295.973 696.468,291.639 692.5,287.5C 692.41,285.304 692.077,283.137 691.5,281C 692.812,277.884 693.812,274.718 694.5,271.5C 696.007,267.155 698.173,263.155 701,259.5C 707.033,252.637 713.199,245.97 719.5,239.5C 721.914,238.089 723.581,236.089 724.5,233.5C 724.427,231.973 725.094,230.973 726.5,230.5C 729.257,228.914 732.257,227.914 735.5,227.5 Z"/></g>
<g><path style="opacity:1" fill="#bebebe" d="M 774.5,231.5 C 776.199,231.34 777.866,231.506 779.5,232C 786.5,237.667 793.5,243.333 800.5,249C 804.325,255.374 802.658,258.374 795.5,258C 788.352,251.596 781.019,245.429 773.5,239.5C 772.102,236.565 772.435,233.898 774.5,231.5 Z"/></g>
<g><path style="opacity:1" fill="#2b5c36" d="M 724.5,233.5 C 723.581,236.089 721.914,238.089 719.5,239.5C 720.419,236.911 722.086,234.911 724.5,233.5 Z"/></g>
<g><path style="opacity:1" fill="#53a4b8" d="M 520.5,231.5 C 521.496,231.414 522.329,231.748 523,232.5C 525.331,235.528 527.331,238.862 529,242.5C 533.193,252.744 537.193,263.077 541,273.5C 541.667,275.167 541.667,276.833 541,278.5C 525.02,292.799 511.687,309.132 501,327.5C 494.195,341.953 490.695,357.286 490.5,373.5C 476.686,368.896 462.686,364.896 448.5,361.5C 453.06,331.903 462.226,303.903 476,277.5C 482.315,266.512 490.148,256.678 499.5,248C 506.569,242.48 513.569,236.98 520.5,231.5 Z"/></g>
<g><path style="opacity:1" fill="#646364" d="M 482.5,247.5 C 481.722,242.66 479.055,241.327 474.5,243.5C 476.979,239.589 479.812,239.589 483,243.5C 483.765,245.066 483.598,246.399 482.5,247.5 Z"/></g>
<g><path style="opacity:1" fill="#bfbfbf" d="M 482.5,247.5 C 481.68,249.14 480.847,250.807 480,252.5C 474.59,257.076 470.09,262.409 466.5,268.5C 461.547,269.71 459.714,267.71 461,262.5C 465.522,256.1 470.022,249.767 474.5,243.5C 479.055,241.327 481.722,242.66 482.5,247.5 Z"/></g>
<g><path style="opacity:1" fill="#fc9170" d="M 324.5,248.5 C 333.978,252.539 342.312,258.206 349.5,265.5C 356.683,272.86 362.516,281.193 367,290.5C 371.584,301.66 375.584,312.993 379,324.5C 379.824,327.882 379.657,331.216 378.5,334.5C 364.899,339.965 352.566,347.465 341.5,357C 339.299,357.825 337.466,357.325 336,355.5C 334.577,343.564 330.577,332.564 324,322.5C 317.92,313.961 309.753,311.128 299.5,314C 294.516,317.666 291.016,322.499 289,328.5C 286.181,337.093 283.681,345.759 281.5,354.5C 280.778,354.918 280.278,355.584 280,356.5C 279.502,359.482 279.335,362.482 279.5,365.5C 279.167,374.833 278.833,384.167 278.5,393.5C 278.783,394.289 279.283,394.956 280,395.5C 286.301,394.767 292.468,393.767 298.5,392.5C 298.833,392.5 299.167,392.5 299.5,392.5C 306.721,392.65 313.721,391.983 320.5,390.5C 342.329,389.337 364.329,389.17 386.5,390C 387.823,404.77 387.823,419.603 386.5,434.5C 385.861,439.006 384.861,443.34 383.5,447.5C 351.166,446.844 318.833,446.177 286.5,445.5C 285.191,447.571 284.525,450.071 284.5,453C 284.111,457.93 285.111,462.43 287.5,466.5C 287.587,515.025 285.754,563.359 282,611.5C 281.667,627.167 281.333,642.833 281,658.5C 275.579,659.156 270.079,659.489 264.5,659.5C 252.838,658.623 241.171,657.956 229.5,657.5C 229.769,655.571 229.269,653.905 228,652.5C 227.365,636.481 226.532,620.481 225.5,604.5C 225.5,577.5 225.5,550.5 225.5,523.5C 226.731,498.161 228.065,472.828 229.5,447.5C 230.239,447.631 230.906,447.464 231.5,447C 230.809,445.933 230.309,444.766 230,443.5C 227.393,444.123 224.893,444.79 222.5,445.5C 202.071,447.718 181.571,449.718 161,451.5C 158.5,451.333 156,451.167 153.5,451C 152.136,447.317 151.469,443.484 151.5,439.5C 151.884,435.511 151.217,431.845 149.5,428.5C 149.846,421.471 149.179,414.637 147.5,408C 148.821,402.569 149.488,397.069 149.5,391.5C 156.681,391.11 163.848,390.443 171,389.5C 177.825,390.257 184.658,390.923 191.5,391.5C 201.469,390.275 211.469,389.608 221.5,389.5C 225.541,389.426 226.208,388.093 223.5,385.5C 222.545,373.761 222.878,362.094 224.5,350.5C 225.208,348.622 226.374,346.955 228,345.5C 228.559,338.751 229.392,332.084 230.5,325.5C 234.024,315.425 237.857,305.425 242,295.5C 247.249,287.244 252.915,279.244 259,271.5C 265.539,265.292 272.373,259.459 279.5,254C 286.185,251.716 292.851,249.549 299.5,247.5C 303.722,247.737 307.889,247.404 312,246.5C 315.904,248.312 320.071,248.978 324.5,248.5 Z"/></g>
<g><path style="opacity:1" fill="#191210" d="M 353.5,260.5 C 351.937,261.945 350.604,263.611 349.5,265.5C 342.312,258.206 333.978,252.539 324.5,248.5C 316.289,244.931 307.956,244.598 299.5,247.5C 292.851,249.549 286.185,251.716 279.5,254C 272.373,259.459 265.539,265.292 259,271.5C 252.915,279.244 247.249,287.244 242,295.5C 237.857,305.425 234.024,315.425 230.5,325.5C 227.744,333.528 225.744,341.861 224.5,350.5C 222.878,362.094 222.545,373.761 223.5,385.5C 226.208,388.093 225.541,389.426 221.5,389.5C 219.735,388.539 217.735,388.205 215.5,388.5C 215.5,387.167 215.5,385.833 215.5,384.5C 217.937,369.631 220.437,354.631 223,339.5C 229.204,310.483 242.037,284.983 261.5,263C 277.42,246.692 296.753,239.692 319.5,242C 323.637,242.934 327.637,244.268 331.5,246C 339.03,250.727 346.363,255.56 353.5,260.5 Z"/></g>
<g><path style="opacity:1" fill="#ba705a" d="M 324.5,248.5 C 320.071,248.978 315.904,248.312 312,246.5C 307.889,247.404 303.722,247.737 299.5,247.5C 307.956,244.598 316.289,244.931 324.5,248.5 Z"/></g>
<g><path style="opacity:1" fill="#bababa" d="M 807.5,260.5 C 808.822,260.33 809.989,260.663 811,261.5C 817.291,271.623 822.457,282.29 826.5,293.5C 823.828,298.806 820.995,298.806 818,293.5C 814.895,284.399 810.895,275.733 806,267.5C 805.185,264.802 805.685,262.468 807.5,260.5 Z"/></g>
<g><path style="opacity:1" fill="#bcbcbc" d="M 599.5,264.5 C 602.941,264.301 606.274,264.801 609.5,266C 611.013,268.916 610.68,271.582 608.5,274C 603.557,274.252 598.724,275.086 594,276.5C 589.633,276.075 587.966,273.742 589,269.5C 592.147,266.841 595.647,265.174 599.5,264.5 Z"/></g>
<g><path style="opacity:1" fill="#c2c2c2" d="M 639.5,267.5 C 639.756,269.792 639.423,271.959 638.5,274C 634.848,274.499 631.182,274.665 627.5,274.5C 619.981,275.65 616.981,272.65 618.5,265.5C 625.6,264.696 632.6,265.362 639.5,267.5 Z"/></g>
<g><path style="opacity:1" fill="#bfbfbf" d="M 564.5,292.5 C 561.812,292.834 559.479,292.168 557.5,290.5C 557.07,287.138 558.07,284.305 560.5,282C 564.898,278.606 569.565,275.606 574.5,273C 580.167,271.672 582.667,273.839 582,279.5C 575.436,283.013 569.603,287.347 564.5,292.5 Z"/></g>
<g><path style="opacity:1" fill="#737373" d="M 639.5,267.5 C 642.14,269.879 642.14,272.379 639.5,275C 635.311,275.812 631.311,275.645 627.5,274.5C 631.182,274.665 634.848,274.499 638.5,274C 639.423,271.959 639.756,269.792 639.5,267.5 Z"/></g>
<g><path style="opacity:1" fill="#696969" d="M 451.5,276.5 C 455.274,274.568 457.607,275.735 458.5,280C 458.472,281.07 458.139,281.903 457.5,282.5C 457.833,278.167 455.833,276.167 451.5,276.5 Z"/></g>
<g><path style="opacity:1" fill="#c4c4c4" d="M 451.5,276.5 C 455.833,276.167 457.833,278.167 457.5,282.5C 454.312,289.389 451.312,296.389 448.5,303.5C 446.533,303.739 444.699,303.406 443,302.5C 442.55,298.812 442.717,295.146 443.5,291.5C 445.901,286.365 448.568,281.365 451.5,276.5 Z"/></g>
<g><path style="opacity:1" fill="#bababa" d="M 650.5,277.5 C 658.816,278.406 666.316,281.406 673,286.5C 673.993,292.502 671.493,294.668 665.5,293C 660.218,288.803 654.718,284.97 649,281.5C 648.7,279.934 649.2,278.601 650.5,277.5 Z"/></g>
<g><path style="opacity:1" fill="#4a8553" d="M 694.5,271.5 C 693.812,274.718 692.812,277.884 691.5,281C 692.077,283.137 692.41,285.304 692.5,287.5C 688.311,281.73 688.978,276.397 694.5,271.5 Z"/></g>
<g><path style="opacity:1" fill="#5e5e5e" d="M 557.5,290.5 C 559.479,292.168 561.812,292.834 564.5,292.5C 562.712,293.622 560.712,293.789 558.5,293C 557.748,292.329 557.414,291.496 557.5,290.5 Z"/></g>
<g><path style="opacity:1" fill="#bebebe" d="M 544.5,293.5 C 550.496,292.333 552.996,294.666 552,300.5C 548.019,305.316 543.852,309.982 539.5,314.5C 533.534,316.031 531.368,313.698 533,307.5C 537.069,302.94 540.902,298.274 544.5,293.5 Z"/></g>
<g><path style="opacity:1" fill="#919191" d="M 443.5,291.5 C 442.717,295.146 442.55,298.812 443,302.5C 444.699,303.406 446.533,303.739 448.5,303.5C 445.775,306.207 443.275,305.874 441,302.5C 440.13,298.361 440.963,294.694 443.5,291.5 Z"/></g>
<g><path style="opacity:1" fill="#c1c0c0" d="M 679.5,299.5 C 681.527,299.338 683.527,299.505 685.5,300C 690.751,304.691 695.417,309.857 699.5,315.5C 699.167,319.989 696.833,321.489 692.5,320C 688,314.833 683.5,309.667 679,304.5C 678.36,302.735 678.527,301.068 679.5,299.5 Z"/></g>
<g><path style="opacity:1" fill="#4f4f4f" d="M 830.5,308.5 C 825.185,308.497 823.185,311.164 824.5,316.5C 821.821,309.869 823.821,307.203 830.5,308.5 Z"/></g>
<g><path style="opacity:1" fill="#bcbcbc" d="M 830.5,308.5 C 831.558,309.6 832.392,310.934 833,312.5C 835.334,319.661 836.5,326.995 836.5,334.5C 833.635,334.945 831.135,334.278 829,332.5C 827.492,327.132 825.992,321.799 824.5,316.5C 823.185,311.164 825.185,308.497 830.5,308.5 Z"/></g>
<g><path style="opacity:1" fill="#bdbdbd" d="M 434.5,318.5 C 436.527,318.338 438.527,318.505 440.5,319C 441.116,320.4 441.449,321.9 441.5,323.5C 439.205,330.345 437.372,337.345 436,344.5C 434.174,348.037 431.84,348.371 429,345.5C 428.125,344.127 427.625,342.627 427.5,341C 428.256,334.324 429.756,327.824 432,321.5C 433.045,320.627 433.878,319.627 434.5,318.5 Z"/></g>
<g><path style="opacity:1" fill="#bbbbbb" d="M 525.5,318.5 C 527.833,318.5 530.167,318.5 532.5,318.5C 532.662,320.527 532.495,322.527 532,324.5C 527.97,330.521 523.97,336.521 520,342.5C 513.795,344.213 511.462,341.88 513,335.5C 516.223,329.016 520.39,323.349 525.5,318.5 Z"/></g>
<g><path style="opacity:1" fill="#366b42" d="M 808.5,319.5 C 810.078,324.583 810.745,329.916 810.5,335.5C 809.194,330.384 808.527,325.051 808.5,319.5 Z"/></g>
<g><path style="opacity:1" fill="#bab9ba" d="M 715.5,349.5 C 716.167,353.5 714.5,355.167 710.5,354.5C 707.738,346.309 703.904,338.642 699,331.5C 698.333,330.5 698.333,329.5 699,328.5C 702.206,326.876 704.872,327.542 707,330.5C 710.098,336.749 712.932,343.082 715.5,349.5 Z"/></g>
<g><path style="opacity:1" fill="#c2705c" d="M 230.5,325.5 C 229.392,332.084 228.559,338.751 228,345.5C 226.374,346.955 225.208,348.622 224.5,350.5C 225.744,341.861 227.744,333.528 230.5,325.5 Z"/></g>
<g><path style="opacity:1" fill="#686868" d="M 840.5,350.5 C 839.133,346.541 836.466,345.541 832.5,347.5C 832.414,346.504 832.748,345.671 833.5,345C 838.338,343.672 840.671,345.506 840.5,350.5 Z"/></g>
<g><path style="opacity:1" fill="#bebebe" d="M 840.5,350.5 C 842.516,361.126 842.849,371.793 841.5,382.5C 838.956,382.896 836.789,382.229 835,380.5C 834.821,376.975 834.321,373.641 833.5,370.5C 833.2,363.801 832.534,357.135 831.5,350.5C 831.52,349.274 831.853,348.274 832.5,347.5C 836.466,345.541 839.133,346.541 840.5,350.5 Z"/></g>
<g><path style="opacity:1" fill="#bababa" d="M 513.5,359.5 C 511.795,364.903 511.128,370.57 511.5,376.5C 509.596,378.96 507.763,378.627 506,375.5C 504.989,368 505.655,360.667 508,353.5C 509.715,350.603 512.215,349.269 515.5,349.5C 515.149,352.903 514.482,356.237 513.5,359.5 Z"/></g>
<g><path style="opacity:1" fill="#3e3e3e" d="M 715.5,349.5 C 716.793,351.364 716.793,353.364 715.5,355.5C 713.38,357.009 711.713,356.676 710.5,354.5C 714.5,355.167 716.167,353.5 715.5,349.5 Z"/></g>
<g><path style="opacity:1" fill="#c0c0c0" d="M 428.5,356.5 C 429.437,364.445 429.77,372.445 429.5,380.5C 426.994,383.086 424.494,383.086 422,380.5C 419.909,372.463 420.076,364.463 422.5,356.5C 424.46,355.481 426.46,355.481 428.5,356.5 Z"/></g>
<g><path style="opacity:1" fill="#a76957" d="M 281.5,354.5 C 281.57,358.425 280.903,362.091 279.5,365.5C 279.335,362.482 279.502,359.482 280,356.5C 280.278,355.584 280.778,354.918 281.5,354.5 Z"/></g>
<g><path style="opacity:1" fill="#3f3f3f" d="M 428.5,356.5 C 429.117,356.611 429.617,356.944 430,357.5C 430.822,365.345 430.656,373.011 429.5,380.5C 429.77,372.445 429.437,364.445 428.5,356.5 Z"/></g>
<g><path style="opacity:1" fill="#444444" d="M 513.5,359.5 C 513.404,365.373 512.737,371.04 511.5,376.5C 511.128,370.57 511.795,364.903 513.5,359.5 Z"/></g>
<g><path style="opacity:1" fill="#bcbcbc" d="M 716.5,373.5 C 718.527,373.338 720.527,373.505 722.5,374C 723.126,374.75 723.626,375.584 724,376.5C 724.488,382.577 723.988,388.577 722.5,394.5C 720.5,394.5 718.5,394.5 716.5,394.5C 716.5,387.5 716.5,380.5 716.5,373.5 Z"/></g>
<g><path style="opacity:1" fill="#4d9358" d="M 735.5,372.5 C 737.396,374.837 738.73,377.504 739.5,380.5C 744.5,380.5 749.5,380.5 754.5,380.5C 749.396,382.121 744.063,382.621 738.5,382C 737.402,378.873 736.402,375.707 735.5,372.5 Z"/></g>
<g><path style="opacity:1" fill="#515151" d="M 833.5,370.5 C 834.321,373.641 834.821,376.975 835,380.5C 836.789,382.229 838.956,382.896 841.5,382.5C 838.857,383.979 836.357,383.646 834,381.5C 833.501,377.848 833.335,374.182 833.5,370.5 Z"/></g>
<g><path style="opacity:1" fill="#888888" d="M 513.5,399.5 C 512.361,395.699 511.528,391.699 511,387.5C 508.959,386.577 506.792,386.244 504.5,386.5C 504.5,389.167 504.5,391.833 504.5,394.5C 503.362,391.696 503.195,388.696 504,385.5C 506.218,383.381 508.718,383.048 511.5,384.5C 512.903,389.392 513.57,394.392 513.5,399.5 Z"/></g>
<g><path style="opacity:1" fill="#c6c6c6" d="M 513.5,399.5 C 514.629,401.628 514.796,403.961 514,406.5C 512.204,407.767 510.371,407.767 508.5,406.5C 506.248,402.833 504.915,398.833 504.5,394.5C 504.5,391.833 504.5,389.167 504.5,386.5C 506.792,386.244 508.959,386.577 511,387.5C 511.528,391.699 512.361,395.699 513.5,399.5 Z"/></g>
<g><path style="opacity:1" fill="#6f6f6f" d="M 417.5,391.5 C 417.5,391.167 417.5,390.833 417.5,390.5C 420.187,390.336 422.854,390.503 425.5,391C 426.056,391.383 426.389,391.883 426.5,392.5C 423.391,392.736 420.391,392.403 417.5,391.5 Z"/></g>
<g><path style="opacity:1" fill="#3e231b" d="M 298.5,392.5 C 292.468,393.767 286.301,394.767 280,395.5C 279.283,394.956 278.783,394.289 278.5,393.5C 285.109,392.577 291.776,392.244 298.5,392.5 Z"/></g>
<g><path style="opacity:1" fill="#bfbfbf" d="M 836.5,430.5 C 830.076,432.733 827.743,430.4 829.5,423.5C 829.29,415.058 830.124,406.725 832,398.5C 835.442,393.014 838.609,393.18 841.5,399C 840.282,409.578 838.615,420.078 836.5,430.5 Z"/></g>
<g><path style="opacity:1" fill="#546ab9" d="M 447.5,388.5 C 455.654,389.606 463.654,391.439 471.5,394C 478.743,397.326 486.243,400.16 494,402.5C 496.662,415.483 500.329,428.15 505,440.5C 507.48,447.14 510.647,453.14 514.5,458.5C 513.412,467.818 512.412,477.151 511.5,486.5C 491.593,474.216 470.26,465.216 447.5,459.5C 446.075,452.893 445.075,446.226 444.5,439.5C 443.397,422.492 443.397,405.492 444.5,388.5C 445.5,388.5 446.5,388.5 447.5,388.5 Z"/></g>
<g><path style="opacity:1" fill="#070404" d="M 353.5,260.5 C 375.75,273.265 390.916,291.932 399,316.5C 401.667,324.5 404.333,332.5 407,340.5C 407.824,343.882 407.657,347.216 406.5,350.5C 398.705,354.941 390.705,359.108 382.5,363C 375.592,367.238 369.259,372.238 363.5,378C 357.539,381.059 354.039,379.225 353,372.5C 352.15,367.416 350.984,362.416 349.5,357.5C 346.346,360.243 343.012,362.743 339.5,365C 336.975,365.896 334.808,365.396 333,363.5C 330.701,357.011 329.035,350.344 328,343.5C 326.783,340.006 325.283,336.673 323.5,333.5C 318.161,338.832 314.327,345.165 312,352.5C 307.452,363.738 305.285,375.405 305.5,387.5C 332.814,385.954 360.147,385.12 387.5,385C 389.081,385.707 390.581,386.54 392,387.5C 392.499,391.152 392.665,394.818 392.5,398.5C 398.176,398.334 403.843,398.501 409.5,399C 410.966,399.635 412.3,400.469 413.5,401.5C 414.388,420.855 413.888,440.188 412,459.5C 410.218,465.116 406.384,467.783 400.5,467.5C 395.443,466.992 390.443,466.159 385.5,465C 361.169,464.5 336.836,464.333 312.5,464.5C 313.094,470.133 313.428,475.799 313.5,481.5C 309.855,545.128 308.355,608.794 309,672.5C 308.208,674.587 307.041,676.421 305.5,678C 286.483,678.716 267.483,678.383 248.5,677C 244.904,673.265 243.571,668.765 244.5,663.5C 238.491,663.666 232.491,663.499 226.5,663C 224.951,661.786 223.785,660.286 223,658.5C 222.245,614.159 222.412,569.826 223.5,525.5C 224.167,551.833 224.833,578.167 225.5,604.5C 226.532,620.481 227.365,636.481 228,652.5C 229.269,653.905 229.769,655.571 229.5,657.5C 241.171,657.956 252.838,658.623 264.5,659.5C 270.079,659.489 275.579,659.156 281,658.5C 281.333,642.833 281.667,627.167 282,611.5C 285.754,563.359 287.587,515.025 287.5,466.5C 287.327,460.447 286.66,454.447 285.5,448.5C 285.685,447.416 286.018,446.416 286.5,445.5C 318.833,446.177 351.166,446.844 383.5,447.5C 384.861,443.34 385.861,439.006 386.5,434.5C 387.823,419.603 387.823,404.77 386.5,390C 364.329,389.17 342.329,389.337 320.5,390.5C 313.27,390.259 306.27,390.925 299.5,392.5C 299.167,392.5 298.833,392.5 298.5,392.5C 291.776,392.244 285.109,392.577 278.5,393.5C 278.833,384.167 279.167,374.833 279.5,365.5C 280.903,362.091 281.57,358.425 281.5,354.5C 283.681,345.759 286.181,337.093 289,328.5C 291.016,322.499 294.516,317.666 299.5,314C 309.753,311.128 317.92,313.961 324,322.5C 330.577,332.564 334.577,343.564 336,355.5C 337.466,357.325 339.299,357.825 341.5,357C 352.566,347.465 364.899,339.965 378.5,334.5C 379.657,331.216 379.824,327.882 379,324.5C 375.584,312.993 371.584,301.66 367,290.5C 362.516,281.193 356.683,272.86 349.5,265.5C 350.604,263.611 351.937,261.945 353.5,260.5 Z"/></g>
<g><path style="opacity:1" fill="#a96654" d="M 320.5,390.5 C 313.721,391.983 306.721,392.65 299.5,392.5C 306.27,390.925 313.27,390.259 320.5,390.5 Z"/></g>
<g><path style="opacity:1" fill="#556f34" d="M 793.5,399.5 C 785.034,401.039 776.368,402.039 767.5,402.5C 775.865,400.087 784.531,399.087 793.5,399.5 Z"/></g>
<g><path style="opacity:1" fill="#8bb955" d="M 711.5,550.5 C 717.767,542.227 724.434,534.227 731.5,526.5C 732.447,524.941 733.113,523.274 733.5,521.5C 730.061,514.288 726.894,506.955 724,499.5C 717.311,488.664 710.478,477.997 703.5,467.5C 708.198,461.303 712.698,454.969 717,448.5C 718.894,443.608 721.228,438.941 724,434.5C 725.851,428.808 727.684,423.141 729.5,417.5C 730.914,415.133 732.248,412.633 733.5,410C 737.571,408.37 741.571,406.87 745.5,405.5C 747.5,405.5 749.5,405.5 751.5,405.5C 757.082,405.143 762.415,404.143 767.5,402.5C 776.368,402.039 785.034,401.039 793.5,399.5C 800.184,398.345 806.851,398.345 813.5,399.5C 813.744,409.588 812.911,419.588 811,429.5C 796.478,484.575 764.978,526.908 716.5,556.5C 714.086,555.089 712.419,553.089 711.5,550.5 Z"/></g>
<g><path style="opacity:1" fill="#556e38" d="M 767.5,402.5 C 762.415,404.143 757.082,405.143 751.5,405.5C 756.506,403.441 761.84,402.441 767.5,402.5 Z"/></g>
<g><path style="opacity:1" fill="#c2c2c2" d="M 713.5,405.5 C 717.446,405.488 719.113,407.488 718.5,411.5C 717.253,416.929 715.253,421.929 712.5,426.5C 708.759,427.401 706.759,426.068 706.5,422.5C 709.283,417.052 711.617,411.386 713.5,405.5 Z"/></g>
<g><path style="opacity:1" fill="#4d5e99" d="M 447.5,387.5 C 447.5,387.833 447.5,388.167 447.5,388.5C 446.5,388.5 445.5,388.5 444.5,388.5C 443.397,405.492 443.397,422.492 444.5,439.5C 443.116,434.056 442.45,428.389 442.5,422.5C 442.279,410.807 442.612,399.14 443.5,387.5C 444.833,387.5 446.167,387.5 447.5,387.5 Z"/></g>
<g><path style="opacity:1" fill="#6e6e6e" d="M 718.5,411.5 C 719.113,407.488 717.446,405.488 713.5,405.5C 715.077,402.983 716.91,402.983 719,405.5C 719.789,407.712 719.622,409.712 718.5,411.5 Z"/></g>
<g><path style="opacity:1" fill="#698148" d="M 745.5,405.5 C 741.571,406.87 737.571,408.37 733.5,410C 732.248,412.633 730.914,415.133 729.5,417.5C 729.548,414.687 730.215,412.021 731.5,409.5C 735.882,407.15 740.548,405.817 745.5,405.5 Z"/></g>
<g><path style="opacity:1" fill="#6f6f6f" d="M 428.5,395.5 C 429.491,402.313 429.825,409.313 429.5,416.5C 427.901,416.768 426.568,416.434 425.5,415.5C 426.5,415.5 427.5,415.5 428.5,415.5C 428.5,408.833 428.5,402.167 428.5,395.5 Z"/></g>
<g><path style="opacity:1" fill="#1f2649" d="M 447.5,387.5 C 446.167,387.5 444.833,387.5 443.5,387.5C 442.612,399.14 442.279,410.807 442.5,422.5C 441.264,410.651 441.264,398.651 442.5,386.5C 444.415,386.216 446.081,386.549 447.5,387.5 Z"/></g>
<g><path style="opacity:1" fill="#60605f" d="M 517.5,415.5 C 511.735,413.259 509.069,415.259 509.5,421.5C 508.378,419.712 508.211,417.712 509,415.5C 512.188,411.589 515.021,411.589 517.5,415.5 Z"/></g>
<g><path style="opacity:1" fill="#c5c5c6" d="M 517.5,415.5 C 518.007,418.431 519.007,421.098 520.5,423.5C 520.098,430.937 519.098,438.27 517.5,445.5C 516.662,445.158 516.328,444.492 516.5,443.5C 516.993,441.194 517.326,438.861 517.5,436.5C 516.325,436.719 515.325,436.386 514.5,435.5C 512.413,430.899 510.746,426.233 509.5,421.5C 509.069,415.259 511.735,413.259 517.5,415.5 Z"/></g>
<g><path style="opacity:1" fill="#c2c2c2" d="M 417.5,391.5 C 420.391,392.403 423.391,392.736 426.5,392.5C 428.048,392.821 428.715,393.821 428.5,395.5C 428.5,402.167 428.5,408.833 428.5,415.5C 427.5,415.5 426.5,415.5 425.5,415.5C 423.99,414.272 422.49,414.272 421,415.5C 420.501,419.152 420.335,422.818 420.5,426.5C 423.448,426.223 426.281,426.556 429,427.5C 429.944,435.496 430.777,443.496 431.5,451.5C 428.763,451.401 426.096,451.735 423.5,452.5C 422.732,451.737 422.232,450.737 422,449.5C 421.536,450.094 421.369,450.761 421.5,451.5C 420.228,431.748 418.894,411.748 417.5,391.5 Z"/></g>
<g><path style="opacity:1" fill="#7e7e7e" d="M 706.5,422.5 C 706.759,426.068 708.759,427.401 712.5,426.5C 712.209,427.649 711.376,428.316 710,428.5C 705.91,427.952 704.743,425.952 706.5,422.5 Z"/></g>
<g><path style="opacity:1" fill="#4f4f4f" d="M 829.5,423.5 C 827.743,430.4 830.076,432.733 836.5,430.5C 836.516,432.484 835.516,433.484 833.5,433.5C 832.062,433.281 830.729,432.781 829.5,432C 828.183,429.063 828.183,426.23 829.5,423.5 Z"/></g>
<g><path style="opacity:1" fill="#ae6a55" d="M 149.5,428.5 C 151.217,431.845 151.884,435.511 151.5,439.5C 149.918,436.124 149.251,432.458 149.5,428.5 Z"/></g>
<g><path style="opacity:1" fill="#130f0e" d="M 215.5,384.5 C 215.5,385.833 215.5,387.167 215.5,388.5C 217.735,388.205 219.735,388.539 221.5,389.5C 211.469,389.608 201.469,390.275 191.5,391.5C 184.658,390.923 177.825,390.257 171,389.5C 163.848,390.443 156.681,391.11 149.5,391.5C 149.488,397.069 148.821,402.569 147.5,408C 149.179,414.637 149.846,421.471 149.5,428.5C 149.251,432.458 149.918,436.124 151.5,439.5C 151.469,443.484 152.136,447.317 153.5,451C 156,451.167 158.5,451.333 161,451.5C 181.571,449.718 202.071,447.718 222.5,445.5C 225.388,444.99 227.721,445.656 229.5,447.5C 228.065,472.828 226.731,498.161 225.5,523.5C 224.511,518.025 224.178,512.358 224.5,506.5C 224.5,492.5 224.5,478.5 224.5,464.5C 207.329,465.809 190.329,467.975 173.5,471C 172.667,470.167 171.833,469.333 171,468.5C 169.519,463.908 168.352,459.241 167.5,454.5C 162.321,456.509 156.988,457.342 151.5,457C 148.527,454.552 147.027,451.386 147,447.5C 146.822,430.797 145.989,414.13 144.5,397.5C 143.227,391.878 145.227,388.044 150.5,386C 172.17,385.537 193.836,385.037 215.5,384.5 Z"/></g>
<g><path style="opacity:1" fill="#606060" d="M 832.5,444.5 C 832.767,437.741 830.1,436.074 824.5,439.5C 824.414,438.504 824.748,437.671 825.5,437C 832.332,435.658 834.665,438.158 832.5,444.5 Z"/></g>
<g><path style="opacity:1" fill="#bfbfbf" d="M 832.5,444.5 C 830.218,454.015 826.884,463.015 822.5,471.5C 817.505,471.875 815.505,469.542 816.5,464.5C 819.332,456.155 821.999,447.821 824.5,439.5C 830.1,436.074 832.767,437.741 832.5,444.5 Z"/></g>
<g><path style="opacity:1" fill="#797979" d="M 702.5,445.5 C 702.185,441.2 699.851,439.533 695.5,440.5C 695.791,439.351 696.624,438.684 698,438.5C 702.594,439.13 704.094,441.463 702.5,445.5 Z"/></g>
<g><path style="opacity:1" fill="#c3c3c3" d="M 695.5,440.5 C 699.851,439.533 702.185,441.2 702.5,445.5C 699.892,449.717 697.559,454.05 695.5,458.5C 692.791,456.097 690.791,453.097 689.5,449.5C 690.759,445.975 692.759,442.975 695.5,440.5 Z"/></g>
<g><path style="opacity:1" fill="#763c2c" d="M 229.5,447.5 C 227.721,445.656 225.388,444.99 222.5,445.5C 224.893,444.79 227.393,444.123 230,443.5C 230.309,444.766 230.809,445.933 231.5,447C 230.906,447.464 230.239,447.631 229.5,447.5 Z"/></g>
<g><path style="opacity:1" fill="#555555" d="M 423.5,452.5 C 422.167,453.5 422.167,454.5 423.5,455.5C 421.824,454.817 421.157,453.483 421.5,451.5C 421.369,450.761 421.536,450.094 422,449.5C 422.232,450.737 422.732,451.737 423.5,452.5 Z"/></g>
<g><path style="opacity:1" fill="#6b7194" d="M 516.5,443.5 C 516.328,444.492 516.662,445.158 517.5,445.5C 516.81,450.017 515.81,454.35 514.5,458.5C 514.444,453.269 515.111,448.269 516.5,443.5 Z"/></g>
<g><path style="opacity:1" fill="#bf705b" d="M 286.5,445.5 C 286.018,446.416 285.685,447.416 285.5,448.5C 286.66,454.447 287.327,460.447 287.5,466.5C 285.111,462.43 284.111,457.93 284.5,453C 284.525,450.071 285.191,447.571 286.5,445.5 Z"/></g>
<g><path style="opacity:1" fill="#6a6a6a" d="M 816.5,464.5 C 815.505,469.542 817.505,471.875 822.5,471.5C 821.817,473.176 820.483,473.843 818.5,473.5C 818.795,475.735 818.461,477.735 817.5,479.5C 818.265,474.094 815.931,472.094 810.5,473.5C 811.635,471.787 813.302,471.12 815.5,471.5C 815.198,468.941 815.532,466.607 816.5,464.5 Z"/></g>
<g><path style="opacity:1" fill="#131313" d="M 343.5,480.5 C 341.278,480.559 340.278,481.725 340.5,484C 340.617,486.616 341.95,488.116 344.5,488.5C 345.525,488.897 345.692,489.563 345,490.5C 341.104,494.849 337.938,499.683 335.5,505C 330.412,505.427 325.412,506.26 320.5,507.5C 321.08,503.19 321.414,498.857 321.5,494.5C 322.058,493.21 323.058,492.377 324.5,492C 327.55,491.321 330.55,490.488 333.5,489.5C 334.474,487.257 334.808,484.924 334.5,482.5C 330.802,482.552 327.135,482.886 323.5,483.5C 322.965,480.762 323.965,478.928 326.5,478C 339.047,474.955 351.714,472.955 364.5,472C 362.792,474.043 360.792,475.71 358.5,477C 353.352,477.986 348.352,479.152 343.5,480.5 Z"/></g>
<g><path style="opacity:1" fill="#bebebe" d="M 810.5,473.5 C 815.931,472.094 818.265,474.094 817.5,479.5C 814.151,486.357 810.151,492.857 805.5,499C 800,500.167 797.833,498 799,492.5C 802.357,485.77 806.19,479.437 810.5,473.5 Z"/></g>
<g><path style="opacity:1" fill="#fd9170" d="M 477.5,494.5 C 481.476,499.755 485.476,505.089 489.5,510.5C 492.46,517.316 494.794,524.316 496.5,531.5C 497.784,549.835 497.784,568.168 496.5,586.5C 492.3,604.24 484.8,620.574 474,635.5C 460.573,651.796 443.407,660.463 422.5,661.5C 412.487,660.885 402.821,658.718 393.5,655C 391.19,654.503 388.857,654.337 386.5,654.5C 362.442,641.599 345.608,622.265 336,596.5C 322.923,552.715 333.756,516.215 368.5,487C 371.974,485.021 375.307,482.855 378.5,480.5C 397.847,473.697 417.847,471.53 438.5,474C 452.807,478.155 465.807,484.989 477.5,494.5 Z"/></g>
<g><path style="opacity:1" fill="#757575" d="M 343.5,480.5 C 342.017,483.411 342.35,486.078 344.5,488.5C 341.95,488.116 340.617,486.616 340.5,484C 340.278,481.725 341.278,480.559 343.5,480.5 Z"/></g>
<g><path style="opacity:1" fill="#090605" d="M 523.5,600.5 C 524.629,598.372 524.796,596.039 524,593.5C 523.71,595.92 523.21,598.254 522.5,600.5C 517.185,627.6 504.185,650.1 483.5,668C 463.464,681.009 442.13,683.675 419.5,676C 406.141,671.824 394.141,665.324 383.5,656.5C 384.5,655.833 385.5,655.167 386.5,654.5C 388.857,654.337 391.19,654.503 393.5,655C 402.821,658.718 412.487,660.885 422.5,661.5C 443.407,660.463 460.573,651.796 474,635.5C 484.8,620.574 492.3,604.24 496.5,586.5C 500.5,568.167 500.5,549.833 496.5,531.5C 494.794,524.316 492.46,517.316 489.5,510.5C 485.476,505.089 481.476,499.755 477.5,494.5C 477.799,492.545 478.799,491.211 480.5,490.5C 498.486,498.32 511.32,511.32 519,529.5C 522.941,539.819 525.108,550.486 525.5,561.5C 525.335,565.182 525.501,568.848 526,572.5C 526.304,568.452 526.804,564.452 527.5,560.5C 527.612,553.82 527.946,547.153 528.5,540.5C 529.483,544.298 529.817,548.298 529.5,552.5C 528.37,576.341 527.037,600.174 525.5,624C 527.219,638.448 527.886,652.948 527.5,667.5C 545.607,668.056 563.607,667.389 581.5,665.5C 584.479,629.285 587.313,593.285 590,557.5C 595.175,533.305 607.342,513.472 626.5,498C 642.374,490.854 652.54,495.687 657,512.5C 658.082,520.824 659.082,529.157 660,537.5C 660.804,538.804 661.971,539.471 663.5,539.5C 672.827,530.661 680.494,520.494 686.5,509C 687.938,501.788 687.772,494.622 686,487.5C 679.249,472.729 669.416,460.229 656.5,450C 646.936,446.713 637.27,446.713 627.5,450C 610.063,463.112 597.563,479.946 590,500.5C 588.644,501.38 587.144,501.714 585.5,501.5C 585.132,486.074 583.798,470.741 581.5,455.5C 565.433,455.679 549.433,455.679 533.5,455.5C 533.82,474.243 533.486,492.91 532.5,511.5C 531.532,509.393 531.198,507.059 531.5,504.5C 531.242,489.446 530.242,474.446 528.5,459.5C 528.296,456.094 528.962,452.928 530.5,450C 534.416,451.061 538.582,451.561 543,451.5C 555.793,449.891 568.627,449.391 581.5,450C 586.087,453.234 588.087,457.734 587.5,463.5C 593.382,463.232 599.215,463.566 605,464.5C 609.812,459.688 614.645,454.855 619.5,450C 637.724,437.204 654.39,438.871 669.5,455C 674.529,456.229 679.196,458.229 683.5,461C 700.568,475.966 711.901,494.466 717.5,516.5C 708.187,531.104 698.354,545.437 688,559.5C 686.155,562.183 683.655,563.85 680.5,564.5C 678.912,563.99 677.745,562.99 677,561.5C 675.945,552.206 675.112,542.873 674.5,533.5C 671.074,539.095 667.074,544.262 662.5,549C 659.401,551.363 656.901,550.863 655,547.5C 654,537.167 653,526.833 652,516.5C 638.771,525.916 629.104,538.25 623,553.5C 620.798,559.772 618.798,566.105 617,572.5C 614.74,596.505 612.407,620.505 610,644.5C 609.667,658.833 609.333,673.167 609,687.5C 608.5,688 608,688.5 607.5,689C 587.253,687.369 566.919,686.369 546.5,686C 542.904,682.265 541.571,677.765 542.5,672.5C 536.491,672.666 530.491,672.499 524.5,672C 522.513,670.681 521.346,668.848 521,666.5C 520.835,644.467 521.668,622.467 523.5,600.5 Z"/></g>
<g><path style="opacity:1" fill="#fc9170" d="M 529.5,552.5 C 531.151,539.03 532.151,525.363 532.5,511.5C 533.486,492.91 533.82,474.243 533.5,455.5C 549.433,455.679 565.433,455.679 581.5,455.5C 583.798,470.741 585.132,486.074 585.5,501.5C 587.144,501.714 588.644,501.38 590,500.5C 597.563,479.946 610.063,463.112 627.5,450C 637.27,446.713 646.936,446.713 656.5,450C 669.416,460.229 679.249,472.729 686,487.5C 687.772,494.622 687.938,501.788 686.5,509C 680.494,520.494 672.827,530.661 663.5,539.5C 661.971,539.471 660.804,538.804 660,537.5C 659.082,529.157 658.082,520.824 657,512.5C 652.54,495.687 642.374,490.854 626.5,498C 607.342,513.472 595.175,533.305 590,557.5C 587.313,593.285 584.479,629.285 581.5,665.5C 563.607,667.389 545.607,668.056 527.5,667.5C 527.886,652.948 527.219,638.448 525.5,624C 527.037,600.174 528.37,576.341 529.5,552.5 Z"/></g>
<g><path style="opacity:1" fill="#5d5d5d" d="M 321.5,494.5 C 321.414,498.857 321.08,503.19 320.5,507.5C 319.853,506.726 319.52,505.726 319.5,504.5C 319.901,500.976 320.567,497.642 321.5,494.5 Z"/></g>
<g><path style="opacity:1" fill="#bfbfbf" d="M 794.5,510.5 C 796.081,512.142 796.747,514.142 796.5,516.5C 792.044,524.971 786.377,532.638 779.5,539.5C 777.305,540.769 775.139,540.769 773,539.5C 772.21,536.366 772.543,533.366 774,530.5C 780.348,524.495 785.514,517.662 789.5,510C 791.387,509.22 793.054,509.387 794.5,510.5 Z"/></g>
<g><path style="opacity:1" fill="#5a5a5a" d="M 794.5,510.5 C 795.496,510.414 796.329,510.748 797,511.5C 797.78,513.387 797.613,515.054 796.5,516.5C 796.747,514.142 796.081,512.142 794.5,510.5 Z"/></g>
<g><path style="opacity:1" fill="#080404" d="M 451.5,550.5 C 451.902,561.254 451.236,571.921 449.5,582.5C 448.434,584.701 447.767,587.035 447.5,589.5C 446.596,588.791 446.263,587.791 446.5,586.5C 451.132,569.879 450.299,553.546 444,537.5C 436.139,537.423 429.473,540.423 424,546.5C 411.555,562.031 407.221,579.697 411,599.5C 411.307,606.084 413.14,612.084 416.5,617.5C 417.398,618.158 418.398,618.824 419.5,619.5C 415.893,620.489 412.226,620.823 408.5,620.5C 404.613,618.585 400.613,616.752 396.5,615C 394.506,612.842 393.172,610.342 392.5,607.5C 389.708,597.871 387.708,588.204 386.5,578.5C 384.199,559.718 388.865,542.718 400.5,527.5C 405.814,523.01 411.814,519.843 418.5,518C 429.939,516.636 438.772,520.803 445,530.5C 447.279,537.168 449.445,543.835 451.5,550.5 Z"/></g>
<g><path style="opacity:1" fill="#5b3a32" d="M 531.5,504.5 C 531.198,507.059 531.532,509.393 532.5,511.5C 532.151,525.363 531.151,539.03 529.5,552.5C 529.817,548.298 529.483,544.298 528.5,540.5C 529.504,528.356 530.504,516.356 531.5,504.5 Z"/></g>
<g><path style="opacity:1" fill="#ba8e5a" d="M 323.5,577.5 C 322.508,577.328 321.842,577.662 321.5,578.5C 320.391,578.557 319.391,578.89 318.5,579.5C 319.576,558.149 320.743,536.815 322,515.5C 324.493,513.328 327.326,512.494 330.5,513C 331.108,514.231 331.441,515.564 331.5,517C 328.443,530.394 325.943,543.894 324,557.5C 323.5,564.158 323.334,570.825 323.5,577.5 Z"/></g>
<g><path style="opacity:1" fill="#74493e" d="M 224.5,506.5 C 224.178,512.358 224.511,518.025 225.5,523.5C 225.5,550.5 225.5,577.5 225.5,604.5C 224.833,578.167 224.167,551.833 223.5,525.5C 223.177,518.978 223.51,512.645 224.5,506.5 Z"/></g>
<g><path style="opacity:1" fill="#f8f8f7" d="M 446.5,586.5 C 443.85,594.137 440.35,601.471 436,608.5C 430.81,614.345 424.31,617.345 416.5,617.5C 413.14,612.084 411.307,606.084 411,599.5C 407.221,579.697 411.555,562.031 424,546.5C 429.473,540.423 436.139,537.423 444,537.5C 450.299,553.546 451.132,569.879 446.5,586.5 Z"/></g>
<g><path style="opacity:1" fill="#bdbdbd" d="M 762.5,545.5 C 768,544.831 770.167,547.165 769,552.5C 760.818,560.013 752.318,567.18 743.5,574C 741.833,574.667 740.167,574.667 738.5,574C 737.223,571.534 737.223,569.034 738.5,566.5C 748.373,561.626 756.373,554.626 762.5,545.5 Z"/></g>
<g><path style="opacity:1" fill="#c3755e" d="M 496.5,531.5 C 500.5,549.833 500.5,568.167 496.5,586.5C 497.784,568.168 497.784,549.835 496.5,531.5 Z"/></g>
<g><path style="opacity:1" fill="#0a0809" d="M 207.5,578.5 C 205.674,580.147 204.34,582.147 203.5,584.5C 181.293,614.849 165.46,648.515 156,685.5C 154.928,702.248 155.595,718.915 158,735.5C 158.308,736.308 158.808,736.975 159.5,737.5C 186.567,722.591 214.9,710.757 244.5,702C 245.035,696.408 246.035,690.908 247.5,685.5C 250.167,684.167 252.833,684.167 255.5,685.5C 255.344,689.582 255.844,693.582 257,697.5C 259.381,698.435 261.881,698.768 264.5,698.5C 264.5,694.167 264.5,689.833 264.5,685.5C 266.895,684.186 269.395,684.186 272,685.5C 273.704,714.904 284.704,740.238 305,761.5C 323.13,782.316 345.964,794.316 373.5,797.5C 376.649,798.165 379.982,798.498 383.5,798.5C 389.726,798.564 395.726,797.897 401.5,796.5C 420.444,792.528 437.11,784.028 451.5,771C 469.937,753.948 483.77,733.782 493,710.5C 496.629,693.685 498.963,676.685 500,659.5C 500.852,658.429 501.685,657.429 502.5,656.5C 503.451,657.919 503.784,659.585 503.5,661.5C 505.39,661.703 506.89,661.037 508,659.5C 508.498,656.183 508.665,652.85 508.5,649.5C 509.778,647.201 511.111,644.868 512.5,642.5C 513.325,641.614 514.325,641.281 515.5,641.5C 517.27,658.434 517.937,675.434 517.5,692.5C 516.549,693.919 516.216,695.585 516.5,697.5C 515.205,701.267 514.539,705.267 514.5,709.5C 528.052,712.221 541.385,715.555 554.5,719.5C 558.331,721.205 562.331,722.538 566.5,723.5C 570.317,725.463 574.317,727.129 578.5,728.5C 579.442,728.392 580.275,728.059 581,727.5C 581.822,724.883 582.322,722.216 582.5,719.5C 584.116,713.392 585.116,707.059 585.5,700.5C 585.328,699.508 585.662,698.842 586.5,698.5C 591.167,698.5 595.833,698.5 600.5,698.5C 600.335,701.518 600.502,704.518 601,707.5C 603.803,710.102 606.636,710.102 609.5,707.5C 610.489,703.893 610.823,700.226 610.5,696.5C 612.5,696.5 614.5,696.5 616.5,696.5C 614.938,712.716 612.105,728.716 608,744.5C 598.362,769.444 586.362,793.111 572,815.5C 558.216,832.618 543.716,849.118 528.5,865C 513.411,878.71 497.077,890.71 479.5,901C 421.297,928.64 360.63,935.973 297.5,923C 250.724,908.881 210.224,884.715 176,850.5C 137.024,800.143 121.024,743.143 128,679.5C 138.454,626.57 164.288,582.903 205.5,548.5C 206.214,558.528 206.881,568.528 207.5,578.5 Z"/></g>
<g><path style="opacity:1" fill="#b8b056" d="M 676.5,577.5 C 662.324,584.127 647.324,587.793 631.5,588.5C 632.848,575.095 636.348,562.428 642,550.5C 649.463,557.632 656.63,565.132 663.5,573C 667.027,576.761 671.361,578.261 676.5,577.5 Z"/></g>
<g><path style="opacity:1" fill="#bebfbe" d="M 197.5,559.5 C 202.099,559.706 203.932,562.039 203,566.5C 199.167,571 195.333,575.5 191.5,580C 185.068,580.899 183.235,578.399 186,572.5C 189.67,567.998 193.503,563.665 197.5,559.5 Z"/></g>
<g><path style="opacity:1" fill="#b38b5a" d="M 433.5,565.5 C 430.097,565.149 426.763,564.482 423.5,563.5C 423.294,558.386 425.627,555.386 430.5,554.5C 431.036,558.314 432.036,561.981 433.5,565.5 Z"/></g>
<g><path style="opacity:1" fill="#151413" d="M 423.5,563.5 C 426.763,564.482 430.097,565.149 433.5,565.5C 435.455,567.346 436.455,569.679 436.5,572.5C 436.672,573.492 436.338,574.158 435.5,574.5C 430.256,573.185 424.923,572.518 419.5,572.5C 420.042,569.088 421.375,566.088 423.5,563.5 Z"/></g>
<g><path style="opacity:1" fill="#898989" d="M 527.5,560.5 C 526.804,564.452 526.304,568.452 526,572.5C 525.501,568.848 525.335,565.182 525.5,561.5C 526.167,561.167 526.833,560.833 527.5,560.5 Z"/></g>
<g><path style="opacity:1" fill="#ada960" d="M 691.5,567.5 C 693.582,568.585 693.916,570.085 692.5,572C 687.503,573.942 682.503,575.776 677.5,577.5C 681.806,573.679 686.473,570.345 691.5,567.5 Z"/></g>
<g><path style="opacity:1" fill="#bfbfbf" d="M 720.5,573.5 C 727.693,572.024 730.36,574.691 728.5,581.5C 718.393,585.142 708.726,589.642 699.5,595C 693.507,596.668 691.007,594.502 692,588.5C 692.833,587.667 693.667,586.833 694.5,586C 703.411,582.042 712.077,577.876 720.5,573.5 Z"/></g>
<g><path style="opacity:1" fill="#737372" d="M 436.5,572.5 C 439.355,577.05 439.021,581.384 435.5,585.5C 433.492,583.917 431.159,582.917 428.5,582.5C 435.512,583.722 437.845,581.055 435.5,574.5C 436.338,574.158 436.672,573.492 436.5,572.5 Z"/></g>
<g><path style="opacity:1" fill="#a8624d" d="M 451.5,550.5 C 452.658,559.991 452.825,569.658 452,579.5C 451.148,580.571 450.315,581.571 449.5,582.5C 451.236,571.921 451.902,561.254 451.5,550.5 Z"/></g>
<g><path style="opacity:1" fill="#090707" d="M 321.5,578.5 C 322.833,582.167 322.833,585.833 321.5,589.5C 320.081,588.549 318.415,588.216 316.5,588.5C 316.5,586.167 316.5,583.833 316.5,581.5C 316.833,580.5 317.5,579.833 318.5,579.5C 319.391,578.89 320.391,578.557 321.5,578.5 Z"/></g>
<g><path style="opacity:1" fill="#0f0f0f" d="M 428.5,582.5 C 431.159,582.917 433.492,583.917 435.5,585.5C 436.17,588.59 435.003,590.257 432,590.5C 427.191,589.599 422.358,588.932 417.5,588.5C 417.5,586.5 417.5,584.5 417.5,582.5C 421.167,582.5 424.833,582.5 428.5,582.5 Z"/></g>
<g><path style="opacity:1" fill="#4f4b45" d="M 321.5,578.5 C 321.842,577.662 322.508,577.328 323.5,577.5C 323.5,581.833 323.5,586.167 323.5,590.5C 322.508,590.672 321.842,590.338 321.5,589.5C 322.833,585.833 322.833,582.167 321.5,578.5 Z"/></g>
<g><path style="opacity:1" fill="#ba6c56" d="M 386.5,578.5 C 387.708,588.204 389.708,597.871 392.5,607.5C 391.141,606.993 390.141,605.993 389.5,604.5C 388.749,605.376 388.249,606.376 388,607.5C 387.661,605.166 387.828,602.832 388.5,600.5C 386.757,593.285 386.09,585.952 386.5,578.5 Z"/></g>
<g><path style="opacity:1" fill="#c0c0c0" d="M 659.5,605.5 C 655.486,604.457 653.82,601.791 654.5,597.5C 656.308,596.093 658.308,594.926 660.5,594C 665.687,593.121 670.687,591.788 675.5,590C 683.171,587.52 686.171,590.02 684.5,597.5C 677.567,599.483 670.567,601.317 663.5,603C 662.016,603.662 660.683,604.496 659.5,605.5 Z"/></g>
<g><path style="opacity:1" fill="#bbbbbb" d="M 172.5,589.5 C 178.499,589.002 180.666,591.669 179,597.5C 175.461,604.75 171.294,611.583 166.5,618C 159.923,619.591 157.756,617.091 160,610.5C 164.425,603.593 168.592,596.593 172.5,589.5 Z"/></g>
<g><path style="opacity:1" fill="#a47968" d="M 207.5,578.5 C 208.497,596.993 208.83,615.659 208.5,634.5C 207.668,616.671 207.168,598.671 207,580.5C 206.584,582.55 205.417,583.884 203.5,584.5C 204.34,582.147 205.674,580.147 207.5,578.5 Z"/></g>
<g><path style="opacity:1" fill="#989798" d="M 316.5,581.5 C 316.5,583.833 316.5,586.167 316.5,588.5C 318.415,588.216 320.081,588.549 321.5,589.5C 321.842,590.338 322.508,590.672 323.5,590.5C 323.433,591.959 323.766,593.292 324.5,594.5C 323.391,594.557 322.391,594.89 321.5,595.5C 321.943,591.471 320.109,589.471 316,589.5C 315.199,586.633 315.366,583.966 316.5,581.5 Z"/></g>
<g><path style="opacity:1" fill="#1a1a1a" d="M 324.5,594.5 C 324.66,596.199 324.494,597.866 324,599.5C 321.743,601.046 319.576,602.712 317.5,604.5C 316.369,602.926 316.202,601.259 317,599.5C 318.397,597.93 319.897,596.596 321.5,595.5C 322.391,594.89 323.391,594.557 324.5,594.5 Z"/></g>
<g><path style="opacity:1" fill="#777b7a" d="M 523.5,600.5 C 523.167,600.5 522.833,600.5 522.5,600.5C 523.21,598.254 523.71,595.92 524,593.5C 524.796,596.039 524.629,598.372 523.5,600.5 Z"/></g>
<g><path style="opacity:1" fill="#6a6a6a" d="M 627.5,590.5 C 627.5,593.833 627.5,597.167 627.5,600.5C 629.5,600.5 631.5,600.5 633.5,600.5C 632.081,601.451 630.415,601.784 628.5,601.5C 627.213,600.129 626.547,598.295 626.5,596C 626.506,593.967 626.839,592.134 627.5,590.5 Z"/></g>
<g><path style="opacity:1" fill="#b97053" d="M 208.5,634.5 C 208.333,645.505 208.5,656.505 209,667.5C 209.13,671.951 209.796,676.284 211,680.5C 212.419,681.46 213.919,682.293 215.5,683C 222.149,684.275 228.816,685.442 235.5,686.5C 239.475,684.727 243.475,684.394 247.5,685.5C 246.035,690.908 245.035,696.408 244.5,702C 214.9,710.757 186.567,722.591 159.5,737.5C 158.808,736.975 158.308,736.308 158,735.5C 155.595,718.915 154.928,702.248 156,685.5C 165.46,648.515 181.293,614.849 203.5,584.5C 205.417,583.884 206.584,582.55 207,580.5C 207.168,598.671 207.668,616.671 208.5,634.5 Z"/></g>
<g><path style="opacity:1" fill="#bdbdbd" d="M 633.5,600.5 C 640.107,598.749 642.607,601.082 641,607.5C 636.514,609.723 631.681,610.723 626.5,610.5C 626.916,607.417 627.583,604.417 628.5,601.5C 630.415,601.784 632.081,601.451 633.5,600.5 Z"/></g>
<g><path style="opacity:1" fill="#545454" d="M 654.5,597.5 C 653.82,601.791 655.486,604.457 659.5,605.5C 657.983,606.735 656.316,606.735 654.5,605.5C 653.2,602.691 653.2,600.024 654.5,597.5 Z"/></g>
<g><path style="opacity:1" fill="#231815" d="M 446.5,586.5 C 446.263,587.791 446.596,588.791 447.5,589.5C 445.856,599.955 441.19,608.788 433.5,616C 425.96,622.613 417.627,624.113 408.5,620.5C 412.226,620.823 415.893,620.489 419.5,619.5C 418.398,618.824 417.398,618.158 416.5,617.5C 424.31,617.345 430.81,614.345 436,608.5C 440.35,601.471 443.85,594.137 446.5,586.5 Z"/></g>
<g><path style="opacity:1" fill="#1a1210" d="M 480.5,490.5 C 478.799,491.211 477.799,492.545 477.5,494.5C 465.807,484.989 452.807,478.155 438.5,474C 417.847,471.53 397.847,473.697 378.5,480.5C 375.307,482.855 371.974,485.021 368.5,487C 333.756,516.215 322.923,552.715 336,596.5C 345.608,622.265 362.442,641.599 386.5,654.5C 385.5,655.167 384.5,655.833 383.5,656.5C 357.374,642.964 340.208,621.964 332,593.5C 319.969,548.597 331.803,511.43 367.5,482C 389.098,468.878 412.431,464.545 437.5,469C 453.827,472.497 468.161,479.664 480.5,490.5 Z"/></g>
<g><path style="opacity:1" fill="#585858" d="M 625.5,610.5 C 625.5,612.167 625.5,613.833 625.5,615.5C 629.167,615.5 632.833,615.5 636.5,615.5C 632.702,616.483 628.702,616.817 624.5,616.5C 624.205,614.265 624.539,612.265 625.5,610.5 Z"/></g>
<g><path style="opacity:1" fill="#c0c0c0" d="M 151.5,648.5 C 148.778,650.773 145.778,651.107 142.5,649.5C 141.489,647.598 141.322,645.598 142,643.5C 144.196,638.58 146.196,633.58 148,628.5C 149.845,624.205 152.512,623.538 156,626.5C 156.167,627.667 156.333,628.833 156.5,630C 154.596,636.116 152.93,642.283 151.5,648.5 Z"/></g>
<g><path style="opacity:1" fill="#424242" d="M 151.5,648.5 C 150.892,650.99 149.225,652.324 146.5,652.5C 144.583,652.246 143.249,651.246 142.5,649.5C 145.778,651.107 148.778,650.773 151.5,648.5 Z"/></g>
<g><path style="opacity:1" fill="#bebebe" d="M 508.5,649.5 C 508.665,652.85 508.498,656.183 508,659.5C 506.89,661.037 505.39,661.703 503.5,661.5C 503.784,659.585 503.451,657.919 502.5,656.5C 502.351,655.448 502.517,654.448 503,653.5C 504.952,652.253 506.785,650.919 508.5,649.5 Z"/></g>
<g><path style="opacity:1" fill="#707070" d="M 145.5,670.5 C 144.515,663.833 141.515,662.833 136.5,667.5C 137.828,663.746 140.494,662.579 144.5,664C 146.608,666.016 146.942,668.183 145.5,670.5 Z"/></g>
<g><path style="opacity:1" fill="#c6c6c6" d="M 145.5,670.5 C 144.57,674.4 144.237,678.4 144.5,682.5C 143.673,687.651 143.173,692.984 143,698.5C 141.713,701.145 139.547,702.145 136.5,701.5C 135.778,701.082 135.278,700.416 135,699.5C 134.358,688.732 134.858,678.065 136.5,667.5C 141.515,662.833 144.515,663.833 145.5,670.5 Z"/></g>
<g><path style="opacity:1" fill="#c1c1c1" d="M 510.5,690.5 C 509.467,694.317 507.133,695.317 503.5,693.5C 502.16,692.312 501.493,690.812 501.5,689C 502.077,686.863 502.41,684.696 502.5,682.5C 503.581,679.373 504.247,676.04 504.5,672.5C 506.722,672.178 508.556,672.845 510,674.5C 510.499,679.823 510.666,685.156 510.5,690.5 Z"/></g>
<g><path style="opacity:1" fill="#646464" d="M 510.5,690.5 C 510.666,685.156 510.499,679.823 510,674.5C 508.556,672.845 506.722,672.178 504.5,672.5C 504.247,676.04 503.581,679.373 502.5,682.5C 502.505,678.466 502.838,674.466 503.5,670.5C 506.652,669.959 509.152,670.959 511,673.5C 511.818,679.349 511.652,685.015 510.5,690.5 Z"/></g>
<g><path style="opacity:1" fill="#c3c3c3" d="M 255.5,685.5 C 258.5,685.5 261.5,685.5 264.5,685.5C 264.5,689.833 264.5,694.167 264.5,698.5C 261.881,698.768 259.381,698.435 257,697.5C 255.844,693.582 255.344,689.582 255.5,685.5 Z"/></g>
<g><path style="opacity:1" fill="#434341" d="M 144.5,682.5 C 144.666,688.176 144.499,693.843 144,699.5C 143.626,700.416 143.126,701.25 142.5,702C 140.288,702.789 138.288,702.622 136.5,701.5C 139.547,702.145 141.713,701.145 143,698.5C 143.173,692.984 143.673,687.651 144.5,682.5 Z"/></g>
<g><path style="opacity:1" fill="#745caa" d="M 517.5,692.5 C 532.62,694.34 547.62,696.007 562.5,697.5C 552.84,696.967 543.173,696.467 533.5,696C 528.868,695.819 524.368,694.986 520,693.5C 518.229,694.347 517.063,695.68 516.5,697.5C 516.216,695.585 516.549,693.919 517.5,692.5 Z"/></g>
<g><path style="opacity:1" fill="#bfbfbf" d="M 610.5,696.5 C 610.823,700.226 610.489,703.893 609.5,707.5C 606.636,710.102 603.803,710.102 601,707.5C 600.502,704.518 600.335,701.518 600.5,698.5C 595.833,698.5 591.167,698.5 586.5,698.5C 594.369,697.774 602.369,697.107 610.5,696.5 Z"/></g>
<g><path style="opacity:1" fill="#bcbcbc" d="M 502.5,717.5 C 500.396,717.799 498.396,717.466 496.5,716.5C 495.873,715.583 495.539,714.583 495.5,713.5C 496.83,708.507 498.164,703.507 499.5,698.5C 504.54,696.697 506.873,698.53 506.5,704C 506.052,708.836 504.719,713.336 502.5,717.5 Z"/></g>
<g><path style="opacity:1" fill="#7553b8" d="M 562.5,697.5 C 570.41,697.029 578.077,698.029 585.5,700.5C 585.116,707.059 584.116,713.392 582.5,719.5C 581.883,719.611 581.383,719.944 581,720.5C 580.505,722.473 580.338,724.473 580.5,726.5C 575.743,725.81 571.076,724.81 566.5,723.5C 563.079,720.804 559.079,719.47 554.5,719.5C 541.385,715.555 528.052,712.221 514.5,709.5C 514.539,705.267 515.205,701.267 516.5,697.5C 517.063,695.68 518.229,694.347 520,693.5C 524.368,694.986 528.868,695.819 533.5,696C 543.173,696.467 552.84,696.967 562.5,697.5 Z"/></g>
<g><path style="opacity:1" fill="#bfbfbf" d="M 263.5,707.5 C 266.044,707.104 268.211,707.771 270,709.5C 271.988,716.46 274.154,723.293 276.5,730C 275.881,734.081 273.548,735.414 269.5,734C 265.54,727.334 262.873,720.168 261.5,712.5C 261.437,710.486 262.103,708.819 263.5,707.5 Z"/></g>
<g><path style="opacity:1" fill="#797979" d="M 141.5,716.5 C 140.407,712.082 137.741,710.748 133.5,712.5C 132.509,716.445 132.176,720.445 132.5,724.5C 131.198,719.964 131.198,715.297 132.5,710.5C 138.161,708.493 141.161,710.493 141.5,716.5 Z"/></g>
<g><path style="opacity:1" fill="#c4c4c4" d="M 141.5,716.5 C 141.256,723.7 141.59,730.866 142.5,738C 141.841,742.082 139.508,743.416 135.5,742C 134.54,740.581 133.707,739.081 133,737.5C 132.501,733.179 132.334,728.846 132.5,724.5C 132.176,720.445 132.509,716.445 133.5,712.5C 137.741,710.748 140.407,712.082 141.5,716.5 Z"/></g>
<g><path style="opacity:1" fill="#bcbcbc" d="M 599.5,739.5 C 594.18,739.574 592.18,736.907 593.5,731.5C 594.039,726.679 595.205,722.012 597,717.5C 599.667,714.833 602.333,714.833 605,717.5C 605.154,722.569 604.487,727.569 603,732.5C 602.861,735.445 601.694,737.779 599.5,739.5 Z"/></g>
<g><path style="opacity:1" fill="#4e3d74" d="M 554.5,719.5 C 559.079,719.47 563.079,720.804 566.5,723.5C 562.331,722.538 558.331,721.205 554.5,719.5 Z"/></g>
<g><path style="opacity:1" fill="#444544" d="M 495.5,713.5 C 495.539,714.583 495.873,715.583 496.5,716.5C 498.396,717.466 500.396,717.799 502.5,717.5C 500.121,720.14 497.621,720.14 495,717.5C 494.305,719.722 493.472,721.889 492.5,724C 496.387,726.77 497.387,730.27 495.5,734.5C 496.418,729.505 494.418,727.172 489.5,727.5C 491.323,722.68 493.323,718.013 495.5,713.5 Z"/></g>
<g><path style="opacity:1" fill="#55407f" d="M 582.5,719.5 C 582.322,722.216 581.822,724.883 581,727.5C 580.275,728.059 579.442,728.392 578.5,728.5C 574.317,727.129 570.317,725.463 566.5,723.5C 571.076,724.81 575.743,725.81 580.5,726.5C 580.338,724.473 580.505,722.473 581,720.5C 581.383,719.944 581.883,719.611 582.5,719.5 Z"/></g>
<g><path style="opacity:1" fill="#c0c0c0" d="M 489.5,727.5 C 494.418,727.172 496.418,729.505 495.5,734.5C 493.841,739.964 491.674,745.297 489,750.5C 486.289,751.926 483.789,751.592 481.5,749.5C 480.369,747.926 480.202,746.259 481,744.5C 483.81,738.879 486.644,733.213 489.5,727.5 Z"/></g>
<g><path style="opacity:1" fill="#793b3c" d="M 249.5,727.5 C 245.609,728.502 241.609,729.335 237.5,730C 233.151,732.676 228.485,734.509 223.5,735.5C 231.539,729.976 240.206,727.309 249.5,727.5 Z"/></g>
<g><path style="opacity:1" fill="#b95356" d="M 249.5,727.5 C 253.591,737.126 258.424,746.459 264,755.5C 277.109,773.37 290.943,790.704 305.5,807.5C 298.067,831.804 292.067,856.471 287.5,881.5C 278.201,881.172 269.201,879.339 260.5,876C 249.865,870.014 239.199,864.014 228.5,858C 201.426,839.252 181.259,814.752 168,784.5C 165.333,781.167 162.667,777.833 160,774.5C 159.333,770.167 159.333,765.833 160,761.5C 161.167,760.333 162.333,759.167 163.5,758C 180.787,748.688 198.787,741.355 217.5,736C 219.473,735.505 221.473,735.338 223.5,735.5C 228.485,734.509 233.151,732.676 237.5,730C 241.609,729.335 245.609,728.502 249.5,727.5 Z"/></g>
<g><path style="opacity:1" fill="#aa53b8" d="M 470.5,831.5 C 469.241,828.634 468.241,825.634 467.5,822.5C 468.675,822.719 469.675,822.386 470.5,821.5C 469.559,819.228 468.226,817.228 466.5,815.5C 465.948,817.003 465.948,818.669 466.5,820.5C 463.832,819.901 461.998,818.234 461,815.5C 461.155,813.189 461.155,810.856 461,808.5C 460.275,810.158 459.108,810.658 457.5,810C 456.751,808.266 456.251,806.433 456,804.5C 455,805.833 454,805.833 453,804.5C 452.5,803 452,801.5 451.5,800C 452.985,797.683 454.652,795.516 456.5,793.5C 471.5,781.659 484.333,767.659 495,751.5C 497.793,745.62 500.293,739.62 502.5,733.5C 523.753,737.147 544.42,742.981 564.5,751C 566.833,751.333 569.167,751.667 571.5,752C 572.574,752.739 573.241,753.739 573.5,755C 568.76,768.884 561.593,781.384 552,792.5C 550.924,795.648 549.591,798.648 548,801.5C 541.029,810.812 534.029,820.145 527,829.5C 521.5,835 516,840.5 510.5,846C 504.625,850.438 498.292,854.105 491.5,857C 490.167,857.667 488.833,857.667 487.5,857C 481.627,848.629 475.961,840.129 470.5,831.5 Z"/></g>
<g><path style="opacity:1" fill="#616161" d="M 593.5,731.5 C 592.18,736.907 594.18,739.574 599.5,739.5C 598.909,740.151 598.243,740.818 597.5,741.5C 598.766,743.972 598.766,746.306 597.5,748.5C 598.265,743.094 595.931,741.094 590.5,742.5C 592.002,738.937 593.002,735.27 593.5,731.5 Z"/></g>
<g><path style="opacity:1" fill="#bfbfc0" d="M 277.5,742.5 C 279.527,742.338 281.527,742.505 283.5,743C 286.396,747.952 289.896,752.452 294,756.5C 298.605,763.81 296.772,766.81 288.5,765.5C 283.609,760.71 279.442,755.377 276,749.5C 275.167,746.829 275.667,744.496 277.5,742.5 Z"/></g>
<g><path style="opacity:1" fill="#c3c3c3" d="M 590.5,742.5 C 595.931,741.094 598.265,743.094 597.5,748.5C 595.559,752.718 593.892,757.051 592.5,761.5C 586.207,764.239 583.54,762.239 584.5,755.5C 585.733,750.707 587.733,746.374 590.5,742.5 Z"/></g>
<g><path style="opacity:1" fill="#bababa" d="M 472.5,754.5 C 478,753.831 480.167,756.165 479,761.5C 476.346,766.633 472.846,771.133 468.5,775C 466.527,775.495 464.527,775.662 462.5,775.5C 461.737,772.859 461.57,770.192 462,767.5C 466.477,763.837 469.977,759.504 472.5,754.5 Z"/></g>
<g><path style="opacity:1" fill="#5b5b5b" d="M 146.5,761.5 C 142.149,760.533 139.815,762.2 139.5,766.5C 138.114,762.662 139.614,760.329 144,759.5C 145.376,759.684 146.209,760.351 146.5,761.5 Z"/></g>
<g><path style="opacity:1" fill="#c2c2c2" d="M 146.5,761.5 C 147.79,762.058 148.623,763.058 149,764.5C 151.136,771.242 153.469,777.909 156,784.5C 154.422,789.376 151.755,789.709 148,785.5C 144.606,779.381 141.772,773.048 139.5,766.5C 139.815,762.2 142.149,760.533 146.5,761.5 Z"/></g>
<g><path style="opacity:1" fill="#555555" d="M 584.5,755.5 C 583.54,762.239 586.207,764.239 592.5,761.5C 592.586,762.496 592.252,763.329 591.5,764C 584.157,765.163 581.824,762.329 584.5,755.5 Z"/></g>
<g><path style="opacity:1" fill="#bcbcbc" d="M 580.5,768.5 C 586.499,768.002 588.666,770.669 587,776.5C 585.381,781.365 583.381,786.032 581,790.5C 574.15,792.984 571.817,790.651 574,783.5C 575.42,778.118 577.587,773.118 580.5,768.5 Z"/></g>
<g><path style="opacity:1" fill="#bebebe" d="M 298.5,769.5 C 300.199,769.34 301.866,769.506 303.5,770C 310.559,775.391 317.893,780.391 325.5,785C 328.318,791.606 326.318,794.273 319.5,793C 311.913,787.957 304.413,782.79 297,777.5C 296.109,774.502 296.609,771.836 298.5,769.5 Z"/></g>
<g><path style="opacity:1" fill="#bcbdbc" d="M 450.5,779.5 C 456.723,778.906 458.723,781.573 456.5,787.5C 450.488,792.177 443.821,795.177 436.5,796.5C 435.551,793.792 435.551,791.126 436.5,788.5C 441.231,785.476 445.898,782.476 450.5,779.5 Z"/></g>
<g><path style="opacity:1" fill="#bebebe" d="M 357.5,799.5 C 357.5,801.5 357.5,803.5 357.5,805.5C 355.167,805.5 352.833,805.5 350.5,805.5C 346.331,804.777 342.331,803.444 338.5,801.5C 335.077,796.308 336.411,793.808 342.5,794C 347.156,796.719 352.156,798.552 357.5,799.5 Z"/></g>
<g><path style="opacity:1" fill="#bbbbbb" d="M 424.5,794.5 C 429.835,794.005 432.335,796.338 432,801.5C 425.917,804.818 419.417,807.152 412.5,808.5C 407.683,807.744 406.349,805.078 408.5,800.5C 413.994,798.619 419.327,796.619 424.5,794.5 Z"/></g>
<g><path style="opacity:1" fill="#bcbcbc" d="M 153.5,796.5 C 157.49,795.616 160.323,796.949 162,800.5C 165.414,806.997 169.081,813.33 173,819.5C 174.668,825.493 172.502,827.993 166.5,827C 161.037,819.246 156.203,811.079 152,802.5C 151.252,800.16 151.752,798.16 153.5,796.5 Z"/></g>
<g><path style="opacity:1" fill="#aeaeae" d="M 401.5,796.5 C 395.726,797.897 389.726,798.564 383.5,798.5C 379.982,798.498 376.649,798.165 373.5,797.5C 382.849,797.517 392.182,797.183 401.5,796.5 Z"/></g>
<g><path style="opacity:1" fill="#bebebd" d="M 561.5,820.5 C 556.661,821.323 554.327,819.323 554.5,814.5C 558.411,809.69 561.577,804.357 564,798.5C 566.706,795.022 569.706,794.689 573,797.5C 571.867,806.432 568.034,814.099 561.5,820.5 Z"/></g>
<g><path style="opacity:1" fill="#c6c6c6" d="M 378.5,803.5 C 385.167,803.5 391.833,803.5 398.5,803.5C 400.168,805.479 400.834,807.812 400.5,810.5C 400.082,811.222 399.416,811.722 398.5,812C 388.801,812.698 379.134,812.365 369.5,811C 368.944,810.617 368.611,810.117 368.5,809.5C 368.261,807.533 368.594,805.699 369.5,804C 372.482,803.502 375.482,803.335 378.5,803.5 Z"/></g>
<g><path style="opacity:1" fill="#3e3e3e" d="M 357.5,799.5 C 359.719,801.065 360.052,803.065 358.5,805.5C 355.691,806.8 353.024,806.8 350.5,805.5C 352.833,805.5 355.167,805.5 357.5,805.5C 357.5,803.5 357.5,801.5 357.5,799.5 Z"/></g>
<g><path style="opacity:1" fill="#767676" d="M 378.5,803.5 C 375.482,803.335 372.482,803.502 369.5,804C 368.594,805.699 368.261,807.533 368.5,809.5C 365.959,807.56 365.959,805.393 368.5,803C 372.027,802.192 375.36,802.359 378.5,803.5 Z"/></g>
<g><path style="opacity:1" fill="#575757" d="M 398.5,803.5 C 399.496,803.414 400.329,803.748 401,804.5C 401.789,806.712 401.622,808.712 400.5,810.5C 400.834,807.812 400.168,805.479 398.5,803.5 Z"/></g>
<g><path style="opacity:1" fill="#9e54aa" d="M 456.5,793.5 C 454.652,795.516 452.985,797.683 451.5,800C 452,801.5 452.5,803 453,804.5C 454,805.833 455,805.833 456,804.5C 456.251,806.433 456.751,808.266 457.5,810C 459.108,810.658 460.275,810.158 461,808.5C 461.155,810.856 461.155,813.189 461,815.5C 461.998,818.234 463.832,819.901 466.5,820.5C 465.948,818.669 465.948,817.003 466.5,815.5C 468.226,817.228 469.559,819.228 470.5,821.5C 469.675,822.386 468.675,822.719 467.5,822.5C 468.241,825.634 469.241,828.634 470.5,831.5C 463.03,821.179 455.696,810.679 448.5,800C 450.771,797.218 453.437,795.051 456.5,793.5 Z"/></g>
<g><path style="opacity:1" fill="#b7538c" d="M 374.5,902.5 C 355.603,900.213 336.603,898.546 317.5,897.5C 312.421,897.715 309.254,895.381 308,890.5C 307.333,887.833 307.333,885.167 308,882.5C 309.939,878.55 311.439,874.55 312.5,870.5C 313.956,865.906 315.456,861.239 317,856.5C 317.497,853.854 317.664,851.187 317.5,848.5C 318.829,842.187 320.163,835.854 321.5,829.5C 323.909,825.882 325.409,821.882 326,817.5C 327.711,814.42 330.211,813.254 333.5,814C 359.079,824.509 385.412,827.176 412.5,822C 416.295,820.269 419.962,818.269 423.5,816C 425.259,815.202 426.926,815.369 428.5,816.5C 435.929,826.362 442.596,836.695 448.5,847.5C 450.149,848.648 451.649,849.981 453,851.5C 457.34,858.848 462.173,865.848 467.5,872.5C 468.583,873.365 468.749,874.365 468,875.5C 438.115,888.93 406.948,897.93 374.5,902.5 Z"/></g>
<g><path style="opacity:1" fill="#5a5a5a" d="M 554.5,814.5 C 554.327,819.323 556.661,821.323 561.5,820.5C 559.912,822.616 557.912,822.949 555.5,821.5C 553.447,819.271 553.114,816.938 554.5,814.5 Z"/></g>
<g><path style="opacity:1" fill="#bcbcbc" d="M 545.5,824.5 C 551.499,824.002 553.666,826.669 552,832.5C 548.246,838.258 543.746,843.425 538.5,848C 533.33,848.865 531.497,846.699 533,841.5C 537.664,836.159 541.831,830.493 545.5,824.5 Z"/></g>
<g><path style="opacity:1" fill="#5c5c5c" d="M 182.5,833.5 C 177.677,833.327 175.677,835.661 176.5,840.5C 174.325,834.348 176.325,832.015 182.5,833.5 Z"/></g>
<g><path style="opacity:1" fill="#c1c1c1" d="M 182.5,833.5 C 186.513,837.515 190.179,841.848 193.5,846.5C 194.167,851.833 191.833,854.167 186.5,853.5C 183.167,849.167 179.833,844.833 176.5,840.5C 175.677,835.661 177.677,833.327 182.5,833.5 Z"/></g>
<g><path style="opacity:1" fill="#757575" d="M 193.5,846.5 C 195.5,853.167 193.167,855.5 186.5,853.5C 191.833,854.167 194.167,851.833 193.5,846.5 Z"/></g>
<g><path style="opacity:1" fill="#bfbfbf" d="M 519.5,853.5 C 525,852.831 527.167,855.165 526,860.5C 521.167,864.667 516.333,868.833 511.5,873C 506,874.167 503.833,872 505,866.5C 509.432,861.56 514.265,857.227 519.5,853.5 Z"/></g>
<g><path style="opacity:1" fill="#bfbfbf" d="M 197.5,856.5 C 199.989,856.298 202.323,856.798 204.5,858C 207.203,861.038 210.203,863.705 213.5,866C 215.282,868.243 215.782,870.743 215,873.5C 213.951,874.517 212.784,874.684 211.5,874C 208.384,870.282 204.718,867.282 200.5,865C 198.649,863.316 196.982,861.483 195.5,859.5C 196.193,858.482 196.859,857.482 197.5,856.5 Z"/></g>
<g><path style="opacity:1" fill="#884269" d="M 317.5,848.5 C 317.664,851.187 317.497,853.854 317,856.5C 315.456,861.239 313.956,865.906 312.5,870.5C 312.713,862.647 314.38,855.314 317.5,848.5 Z"/></g>
<g><path style="opacity:1" fill="#c0c0c0" d="M 242.5,882.5 C 245.083,888.121 243.416,890.788 237.5,890.5C 232.14,888.401 227.307,885.401 223,881.5C 222.007,875.498 224.507,873.332 230.5,875C 234.057,878.275 238.057,880.775 242.5,882.5 Z"/></g>
<g><path style="opacity:1" fill="#bebebe" d="M 487.5,874.5 C 494.107,872.749 496.607,875.082 495,881.5C 490.412,884.544 485.912,887.71 481.5,891C 475.294,891.956 473.294,889.456 475.5,883.5C 479.542,880.444 483.542,877.444 487.5,874.5 Z"/></g>
<g><path style="opacity:1" fill="#6e6e6e" d="M 242.5,882.5 C 245.254,884.053 246.087,886.386 245,889.5C 242.643,891.646 240.143,891.979 237.5,890.5C 243.416,890.788 245.083,888.121 242.5,882.5 Z"/></g>
<g><path style="opacity:1" fill="#bdbdbd" d="M 254.5,889.5 C 256.199,889.34 257.866,889.506 259.5,890C 262.286,892.726 265.619,894.393 269.5,895C 272.207,896.864 273.041,899.364 272,902.5C 269.936,903.591 267.769,903.758 265.5,903C 261.5,901.333 257.5,899.667 253.5,898C 252.041,894.929 252.374,892.096 254.5,889.5 Z"/></g>
<g><path style="opacity:1" fill="#bfbfbf" d="M 459.5,892.5 C 466.107,890.749 468.607,893.082 467,899.5C 461.578,902.461 456.078,905.294 450.5,908C 444.498,908.993 442.332,906.493 444,900.5C 449.298,897.914 454.465,895.247 459.5,892.5 Z"/></g>
<g><path style="opacity:1" fill="#844267" d="M 317.5,897.5 C 336.603,898.546 355.603,900.213 374.5,902.5C 368.681,903.653 362.681,903.819 356.5,903C 351.897,902.889 347.564,901.889 343.5,900C 334.562,901.004 325.895,900.171 317.5,897.5 Z"/></g>
<g><path style="opacity:1" fill="#595959" d="M 285.5,900.5 C 283.856,900.286 282.356,900.62 281,901.5C 280.505,903.473 280.338,905.473 280.5,907.5C 278.559,905.989 278.059,903.989 279,901.5C 281.016,899.392 283.183,899.058 285.5,900.5 Z"/></g>
<g><path style="opacity:1" fill="#c1c1c1" d="M 285.5,900.5 C 291.36,901.713 297.027,903.379 302.5,905.5C 302.662,907.527 302.495,909.527 302,911.5C 300.989,912.337 299.822,912.67 298.5,912.5C 292.212,911.762 286.212,910.096 280.5,907.5C 280.338,905.473 280.505,903.473 281,901.5C 282.356,900.62 283.856,900.286 285.5,900.5 Z"/></g>
<g><path style="opacity:1" fill="#bfbfbf" d="M 418.5,916.5 C 412.666,917.663 410,915.329 410.5,909.5C 419.261,904.978 428.594,902.978 438.5,903.5C 438.756,905.792 438.423,907.959 437.5,910C 431.381,912.727 425.048,914.893 418.5,916.5 Z"/></g>
<g><path style="opacity:1" fill="#4c4c4c" d="M 302.5,905.5 C 303.479,906.765 304.479,908.099 305.5,909.5C 307.395,907.514 309.395,907.181 311.5,908.5C 307.676,908.735 305.676,910.735 305.5,914.5C 304.732,913.737 304.232,912.737 304,911.5C 302.322,913.553 300.489,913.887 298.5,912.5C 299.822,912.67 300.989,912.337 302,911.5C 302.495,909.527 302.662,907.527 302.5,905.5 Z"/></g>
<g><path style="opacity:1" fill="#bfbfbf" d="M 311.5,908.5 C 318.143,909.165 324.809,909.665 331.5,910C 333.619,912.218 333.952,914.718 332.5,917.5C 323.277,918.724 314.277,917.724 305.5,914.5C 305.676,910.735 307.676,908.735 311.5,908.5 Z"/></g>
<g><path style="opacity:1" fill="#c4c4c4" d="M 363.5,911.5 C 365.586,912.148 366.586,913.648 366.5,916C 366.156,917.365 365.489,918.532 364.5,919.5C 357.197,920.497 349.863,920.831 342.5,920.5C 337.819,919.294 336.485,916.461 338.5,912C 346.827,911.5 355.16,911.334 363.5,911.5 Z"/></g>
<g><path style="opacity:1" fill="#505050" d="M 393.5,912.5 C 395.966,911.366 398.633,911.199 401.5,912C 402.811,914.274 402.811,916.44 401.5,918.5C 401.739,916.533 401.406,914.699 400.5,913C 398.19,912.503 395.857,912.337 393.5,912.5 Z"/></g>
<g><path style="opacity:1" fill="#c8c8c8" d="M 390.5,912.5 C 391.5,912.5 392.5,912.5 393.5,912.5C 395.857,912.337 398.19,912.503 400.5,913C 401.406,914.699 401.739,916.533 401.5,918.5C 399.815,920.818 397.481,921.818 394.5,921.5C 388.158,921.666 381.825,921.5 375.5,921C 373.327,919.135 372.993,916.969 374.5,914.5C 379.985,913.833 385.319,913.167 390.5,912.5 Z"/></g>
<g><path style="opacity:1" fill="#59595a" d="M 410.5,909.5 C 410,915.329 412.666,917.663 418.5,916.5C 411.35,919.011 408.683,916.677 410.5,909.5 Z"/></g>
<g><path style="opacity:1" fill="#6f6f70" d="M 363.5,911.5 C 355.16,911.334 346.827,911.5 338.5,912C 336.485,916.461 337.819,919.294 342.5,920.5C 340.278,920.822 338.444,920.155 337,918.5C 336.231,915.901 336.398,913.401 337.5,911C 346.343,910.176 355.01,910.343 363.5,911.5 Z"/></g>
<g><path style="opacity:1" fill="#848484" d="M 390.5,912.5 C 385.319,913.167 379.985,913.833 374.5,914.5C 372.993,916.969 373.327,919.135 375.5,921C 381.825,921.5 388.158,921.666 394.5,921.5C 388.013,922.654 381.346,922.821 374.5,922C 371.092,919.242 370.759,916.242 373.5,913C 379.157,912.501 384.824,912.334 390.5,912.5 Z"/></g>
<g><path style="opacity:1" fill="#0a0a0a" d="M 463.5,932.5 C 471.206,931.665 478.539,932.831 485.5,936C 494.772,945.302 494.772,954.635 485.5,964C 483.913,964.862 482.246,965.529 480.5,966C 495.516,971.372 499.349,981.205 492,995.5C 486.157,1001.58 478.99,1004.24 470.5,1003.5C 450.132,1003.34 442.632,993.67 448,974.5C 451.068,970.106 455.235,967.272 460.5,966C 450.537,962.246 446.704,955.08 449,944.5C 451.94,938.047 456.774,934.047 463.5,932.5 Z"/></g>
<g><path style="opacity:1" fill="#0e0e0e" d="M 643.5,932.5 C 648.485,931.96 653.151,932.793 657.5,935C 656.671,936.816 655.837,938.649 655,940.5C 643.037,936.282 638.204,940.615 640.5,953.5C 645.167,953.5 649.833,953.5 654.5,953.5C 654.5,955.5 654.5,957.5 654.5,959.5C 649.833,959.5 645.167,959.5 640.5,959.5C 640.5,973.5 640.5,987.5 640.5,1001.5C 638.167,1001.5 635.833,1001.5 633.5,1001.5C 633.5,987.5 633.5,973.5 633.5,959.5C 629.5,959.5 625.5,959.5 621.5,959.5C 621.5,957.5 621.5,955.5 621.5,953.5C 625.5,953.5 629.5,953.5 633.5,953.5C 631.534,943.636 634.867,936.636 643.5,932.5 Z"/></g>
<g><path style="opacity:1" fill="#050505" d="M 426.5,935.5 C 425.504,949.657 425.171,963.99 425.5,978.5C 429.371,978.815 433.038,978.482 436.5,977.5C 438.344,979.279 439.01,981.612 438.5,984.5C 434.167,984.5 429.833,984.5 425.5,984.5C 425.215,989.897 425.549,995.23 426.5,1000.5C 423.833,1001.83 421.167,1001.83 418.5,1000.5C 419.451,995.23 419.785,989.897 419.5,984.5C 407.833,984.5 396.167,984.5 384.5,984.5C 384.002,980.781 384.836,977.447 387,974.5C 398.147,961.532 408.814,948.198 419,934.5C 420.231,933.892 421.564,933.559 423,933.5C 424.681,933.608 425.848,934.275 426.5,935.5 Z"/></g>
<g><path style="opacity:1" fill="#0b0b0b" d="M 542.5,933.5 C 544.833,933.5 547.167,933.5 549.5,933.5C 549.5,934.833 549.5,936.167 549.5,937.5C 548.343,945.99 548.176,954.657 549,963.5C 549.717,962.956 550.217,962.289 550.5,961.5C 556.654,953.283 564.654,950.783 574.5,954C 579.838,956.007 583.004,959.841 584,965.5C 584.5,977.495 584.667,989.495 584.5,1001.5C 582.167,1001.5 579.833,1001.5 577.5,1001.5C 577.828,989.655 577.495,977.988 576.5,966.5C 575.181,961.018 571.681,958.351 566,958.5C 558.029,959.461 552.695,963.795 550,971.5C 549.5,981.494 549.334,991.494 549.5,1001.5C 547.167,1001.5 544.833,1001.5 542.5,1001.5C 542.5,978.833 542.5,956.167 542.5,933.5 Z"/></g>
<g><path style="opacity:1" fill="#f9f9f9" d="M 463.5,938.5 C 468.179,938.334 472.845,938.501 477.5,939C 484.453,941.967 486.953,947.133 485,954.5C 482.265,961.043 477.265,964.043 470,963.5C 459.129,962.961 454.462,957.294 456,946.5C 457.69,942.979 460.19,940.312 463.5,938.5 Z"/></g>
<g><path style="opacity:1" fill="#0d0d0d" d="M 512.5,940.5 C 514.833,940.5 517.167,940.5 519.5,940.5C 519.182,945.032 519.515,949.366 520.5,953.5C 523.833,953.5 527.167,953.5 530.5,953.5C 532.308,954.918 532.975,956.918 532.5,959.5C 528.167,959.5 523.833,959.5 519.5,959.5C 519.333,970.838 519.5,982.172 520,993.5C 520.943,995.954 522.776,996.954 525.5,996.5C 527.926,996.596 530.093,995.93 532,994.5C 533.582,996.624 533.749,998.79 532.5,1001C 527.14,1002.94 521.807,1002.94 516.5,1001C 514.959,999.421 513.792,997.587 513,995.5C 512.5,983.505 512.333,971.505 512.5,959.5C 508.833,959.5 505.167,959.5 501.5,959.5C 501.025,956.918 501.692,954.918 503.5,953.5C 506.5,953.5 509.5,953.5 512.5,953.5C 512.5,949.167 512.5,944.833 512.5,940.5 Z"/></g>
<g><path style="opacity:1" fill="#9d9d9d" d="M 426.5,935.5 C 426.5,949.5 426.5,963.5 426.5,977.5C 429.833,977.5 433.167,977.5 436.5,977.5C 433.038,978.482 429.371,978.815 425.5,978.5C 425.171,963.99 425.504,949.657 426.5,935.5 Z"/></g>
<g><path style="opacity:1" fill="#d8d8d8" d="M 542.5,933.5 C 542.5,956.167 542.5,978.833 542.5,1001.5C 544.833,1001.5 547.167,1001.5 549.5,1001.5C 547.052,1002.47 544.385,1002.81 541.5,1002.5C 541.169,979.327 541.502,956.327 542.5,933.5 Z"/></g>
<g><path style="opacity:1" fill="#676767" d="M 549.5,937.5 C 549.174,945.684 549.508,953.684 550.5,961.5C 550.217,962.289 549.717,962.956 549,963.5C 548.176,954.657 548.343,945.99 549.5,937.5 Z"/></g>
<g><path style="opacity:1" fill="#f5f5f5" d="M 418.5,944.5 C 419.495,955.654 419.828,966.988 419.5,978.5C 410.494,978.666 401.494,978.5 392.5,978C 401.764,967.243 410.431,956.077 418.5,944.5 Z"/></g>
<g><path style="opacity:1" fill="#b7b7b7" d="M 512.5,940.5 C 514.948,939.527 517.615,939.194 520.5,939.5C 520.5,944.167 520.5,948.833 520.5,953.5C 519.515,949.366 519.182,945.032 519.5,940.5C 517.167,940.5 514.833,940.5 512.5,940.5 Z"/></g>
<g><path style="opacity:1" fill="#0a0a0a" d="M 706.5,971.5 C 706.5,973.833 706.5,976.167 706.5,978.5C 693.989,978.171 681.655,978.505 669.5,979.5C 671.287,995.389 679.62,1000.56 694.5,995C 696.874,992.961 698.874,990.628 700.5,988C 706.545,987.695 707.712,989.862 704,994.5C 696.719,1002.07 687.886,1004.57 677.5,1002C 669.487,998.811 664.654,992.978 663,984.5C 660.452,971.445 664.619,961.279 675.5,954C 691.842,949.498 702.175,955.332 706.5,971.5 Z"/></g>
<g><path style="opacity:1" fill="#0b0b0b" d="M 728.5,952.5 C 735.526,951.805 742.193,952.972 748.5,956C 752.114,958.209 753.447,961.209 752.5,965C 750.527,965.495 748.527,965.662 746.5,965.5C 746.607,963.097 745.607,961.264 743.5,960C 738.137,956.754 732.803,956.754 727.5,960C 723.5,963.667 723.5,967.333 727.5,971C 734.084,973.251 740.75,975.251 747.5,977C 754.453,979.967 756.953,985.133 755,992.5C 752.832,998.18 748.665,1001.35 742.5,1002C 732.349,1004.62 723.849,1002.12 717,994.5C 716.187,992.564 715.687,990.564 715.5,988.5C 717.792,988.756 719.959,988.423 722,987.5C 723.167,992.667 726.333,995.833 731.5,997C 737.964,998.652 743.464,997.152 748,992.5C 749.378,988.102 748.212,984.602 744.5,982C 738.868,980.54 733.201,979.207 727.5,978C 718.564,974.629 715.731,968.462 719,959.5C 721.529,956.115 724.696,953.782 728.5,952.5 Z"/></g>
<g><path style="opacity:1" fill="#696969" d="M 530.5,953.5 C 531.209,952.596 532.209,952.263 533.5,952.5C 533.802,955.059 533.468,957.393 532.5,959.5C 532.975,956.918 532.308,954.918 530.5,953.5 Z"/></g>
<g><path style="opacity:1" fill="#9d9d9d" d="M 503.5,953.5 C 501.692,954.918 501.025,956.918 501.5,959.5C 500.532,957.393 500.198,955.059 500.5,952.5C 501.791,952.263 502.791,952.596 503.5,953.5 Z"/></g>
<g><path style="opacity:1" fill="#fafafa" d="M 699.5,970.5 C 690.225,972.473 680.558,973.14 670.5,972.5C 670.5,971.5 670.5,970.5 670.5,969.5C 672.292,961.88 677.125,958.213 685,958.5C 693.329,958.332 698.162,962.332 699.5,970.5 Z"/></g>
<g><path style="opacity:1" fill="#f7f7f7" d="M 464.5,969.5 C 472.642,968.325 479.808,970.325 486,975.5C 490.938,989.931 485.605,997.264 470,997.5C 457.699,997.537 452.032,991.537 453,979.5C 455.194,974.171 459.027,970.838 464.5,969.5 Z"/></g>
<g><path style="opacity:1" fill="#a9a9a9" d="M 576.5,966.5 C 577.495,977.988 577.828,989.655 577.5,1001.5C 579.833,1001.5 582.167,1001.5 584.5,1001.5C 582.052,1002.47 579.385,1002.81 576.5,1002.5C 576.5,990.5 576.5,978.5 576.5,966.5 Z"/></g>
<g><path style="opacity:1" fill="#898989" d="M 670.5,969.5 C 670.5,970.5 670.5,971.5 670.5,972.5C 680.558,973.14 690.225,972.473 699.5,970.5C 700.404,971.209 700.737,972.209 700.5,973.5C 690.167,973.5 679.833,973.5 669.5,973.5C 669.232,971.901 669.566,970.568 670.5,969.5 Z"/></g>
<g><path style="opacity:1" fill="#bababa" d="M 706.5,971.5 C 707.473,973.948 707.806,976.615 707.5,979.5C 694.833,979.5 682.167,979.5 669.5,979.5C 681.655,978.505 693.989,978.171 706.5,978.5C 706.5,976.167 706.5,973.833 706.5,971.5 Z"/></g>
</svg>
